<svg width="794" height="766" viewBox="0 0 794 766" fill="none" xmlns="http://www.w3.org/2000/svg">
<path d="M698.986 487.537C948.656 327.553 641.464 186.83 516.629 86.3037C213.047 -185.638 21.2656 248.897 128.599 508.785C228.835 769.73 541.963 618.009 698.986 487.475" fill="#EBF7F9"/>
<path opacity="0.8" d="M12.2655 364.629C29.2011 167.98 339.376 191.143 482.603 148.06C798.178 58.1972 597.501 685.772 447.277 733.373C254.845 798.315 21.991 592.916 12.2655 364.629ZM659.021 316.578C716.409 26.8866 400.193 154.489 240.154 176.959C-168.935 212.938 13.8141 646.79 277.681 745.084C537.13 849.25 644.707 519.123 659.021 316.578Z" fill="#D8EFF3"/>
</svg>
