<svg width="892" height="861" viewBox="0 0 892 861" fill="none" xmlns="http://www.w3.org/2000/svg">
<path d="M784.925 548.002C1065.69 368.177 720.238 210 579.854 97.0072C238.459 -208.661 22.79 279.765 143.493 571.885C256.213 865.193 608.343 694.656 784.925 547.932" fill="#EBF7F9"/>
<path opacity="0.8" d="M420.195 136.796C642.194 139.659 641.644 489.184 701.72 646.173C828.41 992.485 107.909 819.015 42.1897 654.553C-46.445 444.21 164.888 166.406 420.195 136.796ZM527.134 857.703C856.831 898.277 687.75 554.34 649.42 376.819C575.512 -78.7147 103.78 161.657 15.1451 465.44C-80.44 764.753 298.735 858.262 527.134 857.703Z" fill="#D8EFF3"/>
</svg>
