<svg width="1200" height="304" viewBox="0 0 1200 304" fill="none" xmlns="http://www.w3.org/2000/svg">
<mask id="mask0_8785_24402" style="mask-type:alpha" maskUnits="userSpaceOnUse" x="0" y="0" width="1200" height="304">
<rect y="0.298828" width="1200" height="303" fill="#D9D9D9"/>
</mask>
<g mask="url(#mask0_8785_24402)">
<path d="M720 -453.701H1830.9V463.299H720V-453.701Z" fill="#313E4E"/>
<path d="M-391 -453.701H720V463.299H-391V-453.701Z" fill="#313E4E"/>
<path d="M719.9 -21.2016C718.6 -20.7016 717.3 -20.1016 715.9 -19.7016C691.8 -11.7016 667.7 -3.60156 643.5 4.29844C625.1 10.0984 607.3 16.8984 590 24.6984C581.7 28.4984 573.2 31.7984 564.5 34.7984C562.7 35.3984 560.8 35.7984 558.9 35.9984C558.3 36.0984 557.7 36.0984 557.2 35.8984C556.7 35.6984 556.2 35.2984 556 34.8984C555.8 34.3984 555.7 33.8984 555.9 33.4984C556.1 32.9984 556.4 32.5984 556.9 32.2984C558.2 31.2984 559.6 30.3984 561 29.4984C568.8 25.2984 576.5 20.8984 584.5 16.9984C607.7 5.79844 631 -5.40156 654.4 -16.4016C664.9 -21.4016 675.8 -25.8016 686.4 -30.6016C689.9 -32.2016 693.3 -33.9016 696.6 -35.8016C704.4 -40.2016 712.2 -44.6016 720 -49.1016L719.9 -21.2016Z" fill="#C5C7C9" fill-opacity="0.05"/>
<path d="M-390.1 -21.302C-390.9 -24.402 -391.1 -43.202 -390.5 -48.502C-389.6 -49.802 -387.9 -50.302 -386.5 -51.102C-363.3 -63.802 -337.8 -73.502 -311 -79.802C-298.3 -82.802 -285.7 -85.802 -272.7 -87.502C-263.5 -88.802 -254.2 -89.702 -244.9 -90.102C-240.5 -90.302 -236 -90.502 -231.6 -90.602C-214.6 -90.802 -197.6 -89.702 -180.8 -87.202C-147.3 -82.302 -114.8 -74.402 -84.1998 -62.102C-64.9998 -54.402 -45.3998 -47.602 -25.7998 -40.802C-0.999786 -32.302 23.2002 -22.502 46.7002 -11.602C52.7002 -8.80196 58.6002 -5.70197 64.7002 -2.90197C77.3002 2.99803 90.0002 9.09803 102.7 14.998C103.5 15.398 104.2 15.698 105 15.998C117.4 20.898 129.8 25.798 142.2 30.798C152.4 34.698 163 37.898 173.8 40.398C177.7 41.198 181.4 42.398 184.9 43.898C185.9 44.398 186.9 44.898 187.7 45.598C187.9 45.798 188.1 45.998 188.2 46.298C188.3 46.598 188.3 46.798 188.3 47.098C188.3 47.398 188.1 47.598 187.9 47.898C187.7 48.098 187.4 48.298 187.1 48.398C186.1 48.798 184.9 48.998 183.8 48.998C181.9 48.798 180 48.498 178.1 48.098C174.4 47.298 170.7 46.298 167 45.498C158.4 43.698 149.8 41.798 141.2 40.098C125.2 36.998 109.6 32.898 94.4002 27.698C84.5002 24.398 74.6003 21.098 64.9002 17.598C58.2002 15.098 51.7002 12.198 45.1002 9.39803C42.7002 8.39803 40.3002 7.39803 37.9002 6.59803C27.2002 2.69803 16.2003 -0.90197 5.60025 -5.00197C-14.4998 -12.802 -35.0998 -19.502 -55.2998 -27.102C-68.9998 -32.302 -83.0998 -36.802 -97.1998 -41.102C-116.8 -47.102 -136.9 -51.602 -157.5 -54.602C-171.7 -56.702 -186 -57.302 -200.4 -56.602C-206.5 -56.302 -212.5 -56.002 -218.6 -55.702C-231.4 -55.002 -244.2 -53.702 -256.9 -51.802C-269.1 -50.002 -281.4 -48.102 -293.6 -46.202C-322.4 -41.702 -350.5 -34.602 -377.5 -25.302C-380.6 -24.202 -383.8 -23.202 -387 -22.102C-387.8 -21.902 -388.8 -21.602 -390.1 -21.302Z" fill="#C5C7C9" fill-opacity="0.05"/>
<path d="M-318.7 298.297C-318 297.597 -317.2 296.797 -316.4 296.197C-306.9 289.797 -298.2 282.597 -289.7 275.297C-278.7 265.797 -267 256.697 -254.8 248.197C-253.3 247.197 -251.9 246.097 -250.4 245.197C-232.3 233.797 -214.4 222.197 -194.3 212.997C-179.8 206.397 -164.7 200.697 -149.3 195.797C-147.5 195.197 -145.7 194.697 -143.9 193.997C-123 186.297 -101 181.497 -78.6002 178.097C-57.3002 174.797 -35.8002 173.797 -14.1002 173.697C-8.60019 173.697 -3.10019 173.697 2.2998 173.797C22.2998 173.997 42.1998 176.597 61.1998 181.497C68.9998 183.497 76.5998 185.797 84.1998 188.097C95.2998 191.497 105.9 195.997 115.7 201.397C127.8 207.997 139.9 214.597 150.8 222.597C155.1 225.897 158.9 229.697 162.2 233.797C162.6 234.397 162.8 235.097 163 235.797C161.1 236.697 159.4 236.197 157.8 235.697C155.7 234.997 153.7 234.197 151.7 233.497C138.3 228.697 124.9 223.697 111.4 219.097C90.2998 211.997 68.3998 206.697 45.8998 203.397C29.1998 200.897 12.1998 199.497 -4.80017 199.397C-10.0002 199.397 -15.1002 198.997 -20.4002 198.897C-22.8002 198.797 -25.1002 198.797 -27.5002 198.897C-39.1002 199.797 -50.8002 200.697 -62.4002 201.697C-72.3002 202.597 -82.0002 204.097 -91.7002 205.597C-111.3 208.497 -130 213.897 -148.9 218.697C-149.6 218.897 -150.3 219.097 -151 219.297C-163.8 223.697 -176.7 227.997 -189.4 232.597C-199.1 236.097 -208.6 240.097 -218.2 243.997C-225.8 247.097 -232.8 250.897 -239.9 254.697C-254.8 262.897 -269.1 271.797 -282.7 281.397C-291.4 287.497 -301 292.697 -311.2 296.797C-313.4 297.697 -315.8 298.297 -318.1 298.997L-318.7 298.297Z" fill="#C5C7C9" fill-opacity="0.05"/>
<path d="M-390.3 11.4985C-390.5 10.7985 -390.7 9.99854 -390.8 9.29854C-390.8 5.99854 -390.7 2.69854 -390.9 -0.60146C-391 -1.40146 -390.7 -2.20146 -390.2 -2.80146C-389.7 -3.50146 -388.9 -3.90146 -387.9 -4.20146C-381.2 -6.50146 -374.6 -9.00146 -367.9 -11.3015C-354.4 -16.0015 -341.1 -20.9015 -327.5 -25.4015C-307.4 -32.1015 -286.5 -36.6015 -265.4 -40.3015C-257.6 -41.8015 -249.7 -42.9015 -241.8 -43.5015C-235.9 -43.9015 -230 -44.2015 -224 -44.2015C-194.6 -44.3015 -165.5 -39.9015 -138.1 -31.2015C-125 -27.0015 -112.1 -22.5015 -99.0998 -18.1015C-89.4998 -14.9015 -79.8998 -11.8015 -70.2998 -8.50146C-62.7998 -6.00146 -55.2998 -3.30146 -47.7998 -0.701458C-36.1998 3.19854 -24.5998 7.19854 -12.7998 10.8985C2.90021 15.5985 18.0002 21.1985 32.7002 27.4985C42.9002 31.8985 53.4002 35.8985 64.0002 39.5985C69.0002 41.2985 74.3002 42.4985 79.5002 44.0985C92.6002 47.8985 106.1 50.7985 119.8 52.8985C126 53.7985 132.3 54.7985 138.5 55.7985C140.1 55.9985 141.7 56.3985 143.3 56.6985C144.2 56.8985 145 57.1985 145.8 57.4985C146.1 57.5985 146.4 57.8985 146.6 58.0985C146.8 58.3985 146.9 58.6985 146.9 58.9985C146.9 59.2985 146.8 59.5985 146.6 59.8985C146.4 60.1985 146.1 60.3985 145.8 60.4985C145 60.7985 144.1 60.9985 143.3 61.0985C136.8 61.4985 130.3 61.3985 123.8 60.7985C115.4 59.9985 107.1 58.9985 98.7002 57.9985C96.1002 57.5985 93.5002 57.0985 91.0002 56.3985C61.6002 48.7985 33.0002 39.6985 5.3002 28.8985C2.50021 27.7985 -0.499817 26.9985 -3.2998 25.9985C-15.7998 21.7985 -28.1998 17.5985 -40.6998 13.4985C-52.0998 9.69854 -63.6998 6.29854 -75.2998 3.19854C-96.8998 -2.60146 -118.9 -6.60146 -141.2 -10.0015C-153.1 -11.8015 -165.2 -12.8015 -177.3 -14.0015C-191.2 -15.2015 -205.1 -15.7015 -219 -15.4015C-229.8 -15.3015 -240.6 -14.4015 -251.3 -13.4015C-270 -11.6015 -288.5 -8.70146 -307 -6.10146C-320.3 -4.30146 -333.5 -2.10146 -346.5 0.598541C-359.6 3.29854 -372.4 6.49854 -385.1 10.1985C-386.6 10.6985 -388.2 10.9985 -390.3 11.4985Z" fill="#C5C7C9" fill-opacity="0.05"/>
<path d="M-390.2 43.3976C-391.2 40.5976 -390.8 38.1976 -390.6 35.7976C-390.5 35.1976 -390.1 34.6976 -389.5 34.3976C-388.5 33.8976 -387.4 33.3976 -386.3 33.0976L-335.9 14.8976C-328 12.0976 -320.2 9.19758 -312.3 6.39758C-295.5 0.497577 -277.8 -3.40242 -259.8 -5.20242C-219.7 -9.30242 -179 -5.40242 -141 6.09758C-136.3 7.49758 -131.5 8.89758 -126.7 9.99758C-112.1 13.6976 -97.7996 18.0976 -83.5996 22.4976C-75.7996 24.8976 -67.9996 27.2976 -60.2996 29.4976C-46.0996 33.5976 -31.7996 37.5976 -17.4996 41.5976C-14.9996 42.2976 -12.3996 42.7976 -9.79959 43.3976C-5.79959 44.3976 -1.79959 45.1976 2.0004 46.4976C15.9004 51.0976 29.7004 55.6976 43.5004 60.3976C51.8004 63.2976 60.1004 66.2976 68.4004 69.1976C69.4004 69.4976 70.3004 69.8976 71.1004 70.3976C72.3004 71.0976 73.7004 71.7976 73.2004 73.2976C72.9004 74.2976 71.6004 74.7976 69.4004 74.4976C67.8004 74.2976 66.2004 73.9976 64.6004 73.5976C59.5004 72.2976 54.4004 70.9976 49.3004 69.6976C27.1004 64.2976 4.80038 58.4976 -17.6996 53.3976C-19.6996 52.9976 -21.6996 52.4976 -23.6996 51.9976C-42.7996 46.7976 -62.2996 42.5976 -81.5996 38.1976C-87.6996 36.7976 -93.7996 35.0976 -99.8996 33.7976C-117.5 29.8976 -135.2 26.4976 -153.1 23.8976C-162.2 22.6976 -171.3 21.8976 -180.5 21.5976C-191.9 21.0976 -203.3 21.1976 -214.7 21.8976C-228.6 22.7976 -242.4 23.8976 -256.2 24.9976C-266.8 25.7976 -277.4 26.5976 -288 27.3976C-313.3 29.1976 -338.5 32.6976 -363.1 37.9976C-371.1 39.6976 -379.1 41.3976 -387.1 43.1976C-388 43.0976 -388.9 43.1976 -390.2 43.3976Z" fill="#C5C7C9" fill-opacity="0.05"/>
<path d="M193.6 261.098C194 259.098 195.4 258.098 196.9 257.198C203.7 252.898 210.4 248.398 217.4 244.398C242.3 230.198 269.4 219.798 298.2 212.198C305.1 210.398 312.4 209.898 319.6 208.998C328.5 207.798 337.3 208.898 346.2 209.298C348 209.398 349.7 209.598 351.5 209.598C363 209.798 374.5 210.598 385.9 212.198C393.9 213.198 402 214.198 410 215.298C422.9 217.298 435.7 219.898 448.2 223.298C465.1 227.698 481.7 232.998 497.8 239.198C515.9 246.098 533.8 253.498 551 261.798C566.6 269.598 581.1 278.698 594.4 288.998C599 292.598 603.2 296.598 607 300.798C607.6 301.498 608.2 302.198 608.8 302.898C609.2 303.198 609.4 303.598 609.5 303.998C609.6 304.398 609.5 304.898 609.2 305.198C608.7 305.798 607.7 305.898 606.4 305.398C605.1 304.898 604 304.398 602.9 303.898L564.1 285.298C557.3 282.098 550.5 278.798 543.7 275.598C542.2 274.898 540.6 274.198 538.9 273.698C516.2 265.598 493.2 257.898 469.6 251.498C453.6 247.098 437.1 244.098 420.6 241.298C405.9 238.898 391.1 237.198 376.3 235.498C363.4 233.998 350.3 233.498 337.3 233.998C327 234.398 316.7 235.398 306.4 236.398C282.6 238.898 259.9 244.698 237.4 251.098C225.6 254.398 213.8 257.498 202 260.698C200.9 260.998 199.8 261.298 198.6 261.498C197.8 261.698 196.9 261.798 196 261.698C195.3 261.698 194.4 261.498 193.6 261.098Z" fill="#C5C7C9" fill-opacity="0.05"/>
<path d="M-5.09961 153.398C-3.79961 152.598 -2.49961 151.898 -1.19961 151.198C11.0004 144.798 23.8004 138.998 37.0004 134.098C51.3004 128.698 65.5004 123.398 80.4004 119.298C92.5004 116.098 104.9 113.698 117.5 112.198C136.7 109.798 156.1 109.098 175.5 109.098C183.5 109.098 191.5 109.198 199.5 109.198C226.5 109.298 253.2 113.698 278.2 122.198C289.3 125.898 300.4 129.498 311.8 132.698C321.5 135.398 330.6 139.298 339 144.098C361.9 157.098 382 172.398 398.4 190.998C399.1 191.798 399.8 192.598 400.4 193.398C400.7 193.898 400.9 194.498 401 195.098C401 195.298 401 195.498 400.9 195.598C400.8 195.798 400.7 195.898 400.5 196.098C400.3 196.198 400.2 196.298 400 196.398C399.8 196.498 399.6 196.498 399.4 196.498C397.8 196.398 396.2 195.898 395 195.098C370.8 181.498 344.5 171.098 318.5 160.298C303.4 153.998 287.4 149.698 271 146.098C251 141.798 230.6 138.498 210.1 136.298C182.8 133.298 155.3 132.198 127.7 132.898C116 133.198 104.4 134.098 92.8004 135.398C62.8004 138.798 33.6004 144.898 4.80039 152.298C1.60039 152.998 -1.49961 153.798 -5.09961 153.398Z" fill="#C5C7C9" fill-opacity="0.05"/>
<path d="M605.101 106.498C605.101 106.798 605.101 106.998 605.001 107.298C604.901 107.598 604.701 107.798 604.501 107.998C604.301 108.198 604.001 108.398 603.701 108.498C603.401 108.598 603.101 108.698 602.801 108.698C602.101 108.598 601.401 108.398 600.801 108.098C599.201 107.198 597.701 106.198 596.401 105.098C592.001 101.098 587.701 97.098 583.401 93.098C576.301 86.298 568.101 80.598 559.401 75.198C543.901 65.398 527.001 58.298 508.901 52.898C501.401 50.598 493.901 48.298 486.301 46.298C474.801 43.298 463.001 41.998 451.001 41.198C436.801 40.198 422.601 39.998 408.401 40.498C398.501 40.798 388.601 41.398 378.701 41.998C368.801 42.698 359.101 44.598 349.801 47.498C331.401 53.098 312.401 56.698 293.301 60.098C283.601 61.798 274.101 63.998 264.401 65.998C253.101 68.298 241.601 70.398 230.401 73.098C218.201 75.998 206.101 79.398 194.001 82.598C189.201 83.798 184.401 84.998 179.601 86.298C178.601 86.498 177.601 86.698 176.601 86.698C176.301 86.698 175.901 86.598 175.701 86.498C175.401 86.398 175.201 86.098 175.001 85.898C174.901 85.698 174.801 85.398 174.801 85.098C174.801 84.798 175.001 84.598 175.201 84.298C175.701 83.698 176.401 83.198 177.101 82.798C178.401 81.998 179.801 81.398 181.301 80.798C184.101 79.698 186.901 78.598 189.701 77.498C197.301 74.698 204.901 72.098 212.401 69.098C226.301 63.598 240.601 59.098 255.001 54.598C267.601 50.598 280.101 46.598 292.601 42.398C306.301 37.798 320.001 33.098 333.701 28.598C338.101 27.198 342.601 25.998 347.201 24.898C354.801 22.998 362.501 20.998 370.201 19.398C382.301 17.098 394.701 15.798 407.101 15.698C433.801 14.998 459.501 19.398 484.701 26.198C506.101 32.098 526.301 40.498 544.601 51.298C552.601 55.898 560.301 60.898 568.001 65.798C574.601 70.098 580.701 74.998 586.301 80.198C593.801 87.498 599.801 95.698 604.201 104.498C604.601 105.098 604.901 105.998 605.101 106.498Z" fill="#C5C7C9" fill-opacity="0.05"/>
<path d="M-288.599 58.4979C-295.299 58.5979 -301.899 58.5979 -308.599 58.6979C-311.499 58.7979 -314.499 58.8979 -317.399 59.1979C-324.899 59.8979 -332.399 60.6979 -339.799 61.5979C-344.899 62.1979 -349.999 62.7979 -355.199 63.2979C-356.999 63.3979 -358.699 63.2979 -360.499 62.9979C-360.899 62.8979 -361.299 62.7979 -361.599 62.4979C-361.899 62.2979 -362.099 61.9979 -362.199 61.5979C-362.299 61.2979 -362.299 60.8979 -362.199 60.5979C-362.099 60.2979 -361.799 59.9979 -361.499 59.7979C-360.499 59.0979 -359.299 58.4979 -358.099 58.1979C-355.299 57.3979 -352.399 56.8979 -349.599 56.1979C-338.099 53.4979 -326.599 50.6979 -315.099 47.8979C-305.399 45.5979 -295.899 42.9979 -285.999 41.4979C-276.399 39.8979 -266.699 38.8979 -256.999 38.4979C-250.699 38.2979 -244.299 37.3979 -237.999 36.9979C-222.799 35.8979 -207.599 35.2979 -192.299 36.0979C-174.599 37.0979 -156.999 39.3979 -139.799 42.8979C-128.199 45.1979 -116.699 47.9979 -105.299 51.0979C-88.8994 55.4979 -72.2994 59.6979 -55.9994 64.4979C-42.0994 68.5979 -27.8994 72.0979 -13.7994 75.4979C0.300598 79.0979 14.2006 83.2979 27.8006 88.0979C29.0006 88.4979 30.2006 88.9979 31.3006 89.5979C31.5006 89.6979 31.7006 89.8979 31.8006 90.0979C31.9006 90.2979 32.0006 90.4979 32.0006 90.7979C31.8006 91.2979 31.2006 91.9979 30.7006 92.0979C29.0006 92.2979 27.2006 92.2979 25.4006 92.1979C21.4006 91.7979 17.5006 91.1979 13.6006 90.5979C3.10059 88.8979 -7.29941 87.0979 -17.6994 85.4979C-24.9994 84.2979 -32.3994 83.2979 -39.8994 82.2979C-48.0994 81.1979 -56.1994 79.5979 -64.0994 77.5979C-68.7994 76.3979 -73.4994 75.4979 -78.2994 74.8979C-91.1994 73.1979 -103.999 71.3979 -116.799 69.8979C-128.699 68.4979 -140.599 67.2979 -152.499 66.6979C-168.199 65.9979 -183.999 65.2979 -199.899 64.3979C-209.599 63.7979 -219.299 62.8979 -228.999 61.8979C-239.099 60.8979 -249.199 59.5979 -259.299 58.5979C-268.199 57.6979 -276.999 57.9979 -285.899 58.2979C-286.899 58.1979 -287.799 58.3979 -288.599 58.4979Z" fill="#C5C7C9" fill-opacity="0.05"/>
<path d="M115.5 252.998C113.8 253.898 112.5 253.098 111.1 252.698C107 251.398 102.9 249.798 98.7998 248.598C84.3998 244.198 69.4998 240.798 54.3998 238.298C36.2998 235.198 17.9998 232.998 -0.400177 231.098C-18.5002 229.298 -36.6002 228.298 -54.8002 228.198C-57.9002 228.198 -61.0002 228.398 -64.1002 228.798C-79.9002 230.598 -95.7002 232.498 -111.4 235.298C-122 237.198 -132.3 239.898 -142.5 242.598C-162.5 247.898 -182.5 253.198 -202.4 258.598C-205.5 259.398 -208.5 260.498 -211.4 261.698C-228.7 268.698 -245.3 276.698 -261.1 285.798C-264.6 287.798 -268.3 289.698 -271.9 291.498C-273.1 292.098 -274.4 292.898 -276.2 291.998C-275.9 291.298 -275.4 290.698 -274.9 290.198C-273 288.498 -270.9 286.898 -268.8 285.398C-258.2 278.098 -247.8 270.698 -236.5 264.198C-210.5 249.498 -183.4 236.698 -153.7 227.698C-134.7 221.898 -115.6 216.398 -95.9002 212.098C-84.9002 209.798 -73.7002 208.198 -62.4002 207.298C-55.7002 206.698 -49.2002 205.998 -42.5002 205.498C-27.9002 204.198 -13.2002 203.898 1.39981 204.598C8.7998 205.098 16.0998 206.198 23.1998 207.998C33.7998 210.298 44.2998 212.998 54.4998 216.198C67.2998 220.298 79.2998 225.998 90.1998 232.998C98.0998 238.198 105.6 243.698 112.9 249.398C114 250.398 115.5 251.198 115.5 252.998Z" fill="#C5C7C9" fill-opacity="0.05"/>
<path d="M570.699 -10.3024C569.799 -10.6024 568.399 -11.0024 566.999 -11.4024C541.399 -19.1024 515.599 -26.1024 489.199 -31.6024C464.099 -36.9024 437.899 -38.2024 412.199 -35.4024C396.899 -33.9024 381.599 -32.7024 366.299 -31.4024C357.899 -30.7024 349.499 -30.2024 341.199 -29.1024C334.199 -28.2024 327.299 -26.7024 320.399 -25.3024C313.499 -23.9024 306.699 -22.4024 299.799 -20.9024C287.499 -18.1024 275.899 -13.6024 265.399 -7.60236C259.299 -4.20236 253.399 -0.402359 247.499 3.19764C243.399 5.79764 239.399 8.49764 235.199 10.9976C233.499 11.8976 231.699 12.6976 229.699 13.3976C229.499 13.4976 229.299 13.4976 229.099 13.4976C228.899 13.4976 228.699 13.4976 228.399 13.3976C228.199 13.2976 227.999 13.1976 227.799 13.0976C227.599 12.9976 227.499 12.7976 227.399 12.6976C227.299 12.3976 227.199 12.0976 227.199 11.7976C227.199 11.4976 227.299 11.1976 227.399 10.8976C228.099 9.99764 228.899 9.09764 229.699 8.19764C235.799 1.79764 242.999 -3.50236 250.199 -9.10236C259.899 -16.6024 270.799 -23.1024 282.499 -28.3024C288.899 -31.2024 295.099 -34.3024 301.199 -37.5024C311.999 -43.0024 323.399 -47.8024 335.199 -51.8024C347.399 -56.2024 360.099 -59.6024 373.099 -62.1024C382.299 -63.8024 391.699 -64.9024 401.199 -65.5024C405.599 -65.8024 410.099 -66.1024 414.499 -66.2024C431.699 -66.6024 448.399 -64.1024 464.699 -59.9024C486.299 -54.3024 507.099 -46.8024 526.699 -37.3024C538.599 -31.6024 550.399 -25.7024 562.099 -19.9024C565.099 -18.4024 568.099 -16.7024 570.999 -15.1024C571.899 -14.6024 572.599 -14.1024 573.299 -13.5024C573.799 -13.1024 573.999 -12.5024 573.899 -11.9024C573.799 -11.5024 573.599 -11.2024 573.299 -11.0024C572.999 -10.8024 572.499 -10.6024 572.099 -10.6024C571.799 -10.2024 571.499 -10.3024 570.699 -10.3024Z" fill="#C5C7C9" fill-opacity="0.05"/>
<path d="M411.9 48.7988C423.2 48.8988 434.4 49.5988 445.5 50.8988C466.2 52.9988 484.8 59.5988 502.5 68.1988C510 71.8988 517.2 75.9988 524.1 80.3988C539.5 90.0988 554.8 99.9988 569.4 110.499C572.2 112.499 574.7 114.699 577.3 116.899C578.2 117.699 579.3 118.499 578.5 119.799C578.1 120.599 576.4 120.699 574.4 120.199C573.7 119.999 573 119.699 572.4 119.399C567.6 117.199 562.9 114.999 558.1 112.699C548.4 108.099 538.7 103.299 528.9 98.6988C519.4 94.1988 509.6 90.1988 499.5 86.6988C484 81.3988 468.2 76.9988 451.6 74.9988C442.4 73.6988 433.1 73.2988 423.7 73.7988C417.2 74.1988 410.7 74.2988 404.2 74.5988C391.6 75.1988 379.1 75.6988 366.5 76.3988C359.1 76.7988 351.8 77.5988 344.4 78.3988C341.8 78.6988 339.2 79.3988 336.6 79.7988C329.8 80.8988 323 81.9988 316.1 83.0988C307.1 84.5988 298.1 86.0988 289.1 87.4988C281.1 88.6988 273.1 89.8988 265.1 91.0988C256.4 92.3988 247.6 93.5988 238.9 94.8988C237.9 95.0988 236.9 95.1988 235.8 95.1988C235.4 95.1988 235.1 95.0988 234.8 94.8988C234.5 94.6988 234.2 94.4988 234.1 94.2988C234 93.9988 234 93.6988 234 93.4988C234.1 93.1988 234.2 92.9988 234.4 92.6988C235.6 91.7988 236.9 90.9988 238.3 90.2988C241.6 88.8988 245 87.6988 248.4 86.5988C265.8 81.7988 282.6 75.7988 299.8 70.3988C310.7 66.8988 321.9 63.9988 333 61.0988C339.8 59.2988 346.5 57.3988 353.3 55.7988C365.8 52.6988 378.6 50.6988 391.6 49.8988C398.6 49.3988 405.3 49.0988 411.9 48.7988Z" fill="#C5C7C9" fill-opacity="0.05"/>
<path d="M287.601 310.197C286.801 310.097 285.901 309.997 285.101 309.797C269.801 306.097 254.201 303.097 238.401 300.797C225.701 298.997 213.001 297.497 200.101 296.697C186.801 295.697 173.501 295.397 160.201 295.497C146.301 295.797 132.401 296.597 118.601 298.097C70.6011 303.197 25.7011 315.897 -16.8989 334.497C-31.1989 340.697 -44.8989 347.597 -58.3989 354.997C-59.5989 355.697 -60.8989 356.297 -61.9989 356.897C-63.0989 356.497 -62.7989 355.797 -62.6989 355.197C-62.2989 353.097 -61.0989 351.197 -59.1989 349.797C-55.7989 346.897 -52.0989 344.197 -48.2989 341.697C-40.8989 336.897 -33.5989 331.797 -26.0989 327.097C-10.8989 317.697 4.80112 308.997 21.2011 300.997C40.2011 291.597 60.7011 284.897 82.0011 279.897C96.9011 276.397 112.201 273.997 127.701 272.797C142.301 271.697 157.001 271.797 171.601 272.997C194.601 274.897 216.501 280.097 238.101 286.797C251.101 290.897 263.701 295.697 275.901 301.297C280.601 303.497 284.401 306.397 288.201 309.397L287.601 310.197Z" fill="#C5C7C9" fill-opacity="0.05"/>
<path d="M-32.1992 375.698C-31.0992 373.698 -29.4992 371.898 -27.3992 370.498C-18.9992 363.998 -10.2992 357.698 -1.29922 351.798C14.9008 341.198 32.0008 331.398 49.7008 322.598C63.5008 315.698 78.6008 310.798 94.4008 307.998C106.701 305.798 119.101 304.298 131.701 303.398C136.001 303.098 140.301 302.798 144.501 302.498C153.801 301.798 163.101 302.098 172.401 303.198C191.001 305.198 208.701 309.898 226.101 315.598C231.501 317.298 236.801 319.098 242.001 321.098C245.701 322.498 249.401 324.198 252.801 326.098C255.101 327.398 257.301 328.898 259.201 330.598C261.401 332.398 263.501 334.298 265.601 336.098C265.901 336.298 266.001 336.498 266.201 336.798C266.301 337.098 266.301 337.398 266.301 337.598C266.201 337.898 266.101 338.098 265.801 338.398C265.601 338.598 265.301 338.798 265.001 338.898C262.901 339.598 260.701 339.798 258.501 339.498C254.301 339.098 250.001 338.498 245.901 337.698C239.701 336.398 233.601 334.898 227.601 333.298C206.501 327.598 184.901 325.598 162.901 326.198C127.301 327.098 92.8008 333.298 59.3008 342.898C36.1008 349.798 13.4008 357.898 -8.59922 367.198C-15.0992 369.898 -21.3992 372.698 -27.7992 375.598C-29.2992 375.998 -30.5992 376.498 -32.1992 375.698Z" fill="#C5C7C9" fill-opacity="0.05"/>
<path d="M345.3 239.099C357.3 239.399 369.3 240.699 381 243.099C389.1 244.699 397.2 245.799 405.4 247.099C420.4 249.399 435.1 252.499 449.6 256.499C466.2 260.999 482.4 266.199 498.4 272.099C516.6 278.899 534.1 286.899 550.8 295.899C559 300.399 567.1 305.199 575 310.099C578.7 312.499 582.2 315.099 585.6 317.899C586.4 318.599 587.1 319.399 587.6 320.299C587.7 320.599 587.7 320.799 587.7 321.099C587.6 321.399 587.5 321.599 587.3 321.799C587.1 321.999 586.8 322.199 586.5 322.299C586.2 322.399 585.9 322.499 585.5 322.399C584.8 322.299 584.1 322.099 583.4 321.899C581.7 321.199 579.9 320.599 578.2 319.799C568.9 315.699 559.7 311.599 550.4 307.599C545.2 305.299 540 302.899 534.7 300.799C521.9 295.699 509.3 290.399 496.1 285.899C488 283.099 479.8 280.899 471.5 278.599C460.4 275.499 448.8 274.099 437.4 272.199C427 270.399 416.5 268.799 406 267.399C385.6 264.599 364.8 263.599 344.1 264.499C324.3 265.399 304.7 268.199 285.7 272.999C280.9 274.299 275.8 274.699 270.8 274.299C268.8 274.099 266.8 273.599 264.9 272.999C264.5 272.899 264.1 272.699 263.8 272.399C263.5 272.099 263.2 271.799 263.1 271.499C263 271.199 262.9 270.799 263 270.399C263 269.999 263.2 269.699 263.4 269.399C264.2 268.199 265.2 267.199 266.3 266.199C274.5 259.299 284.1 253.599 294.6 249.399C305.2 245.199 316.4 242.299 327.9 240.799C329.9 240.499 332 240.299 334 239.899C337.8 238.999 341.6 238.799 345.3 239.099Z" fill="#C5C7C9" fill-opacity="0.05"/>
<path d="M-254.3 307.997C-253.8 305.897 -252.1 304.797 -250.4 303.697C-243.7 299.397 -237.2 294.997 -230.5 290.897C-220.8 284.897 -210.5 279.497 -199.9 274.697C-185.5 268.097 -170.7 261.697 -155.7 255.997C-144 251.597 -131.7 248.397 -119.3 245.597C-104.5 242.197 -89.3998 239.597 -74.1998 237.897C-59.4998 236.197 -44.7998 234.897 -29.9998 235.297C-20.6998 235.497 -11.3998 236.497 -2.2998 238.397C5.3002 239.997 12.9002 241.597 20.4002 243.297C27.4002 244.997 34.1002 247.197 40.5002 249.997C49.6002 253.697 58.3002 258.297 66.3002 263.497C67.7002 264.397 69.0002 265.397 70.2002 266.497C72.3002 268.397 71.6002 270.197 68.5002 270.697C66.6002 270.997 64.7002 271.097 62.8002 270.997C59.0002 270.697 55.1002 270.297 51.4002 269.697C35.3002 267.097 19.1002 264.997 2.8002 263.097C-23.8998 259.897 -50.4998 259.697 -77.3998 260.897C-86.8998 261.297 -96.2998 261.797 -105.7 262.597C-118.8 263.797 -131.9 265.097 -144.4 268.497C-171.1 275.697 -197.3 284.097 -222.4 294.597C-231.8 298.497 -241.1 302.497 -250.4 306.497C-251.7 306.997 -253 307.497 -254.3 307.997Z" fill="#C5C7C9" fill-opacity="0.05"/>
<path d="M-229.5 318.397C-228.5 316.897 -227.1 315.597 -225.5 314.597C-222.2 312.297 -218.9 309.997 -215.4 307.997C-197.4 297.597 -178.7 288.297 -158.5 281.097C-139.8 274.297 -120.1 269.597 -99.9 267.097C-86.6 265.497 -73 265.297 -59.6 266.597C-42.8 268.197 -26.5 272.297 -11.6 278.897C-8.10001 280.397 -4.5 281.897 -1 283.497C1.39999 284.697 3.59999 286.097 5.89999 287.497C6.29999 287.697 6.59999 287.897 6.89999 288.197C8.39999 289.397 7.89999 290.997 5.89999 291.597C5.5 291.697 5 291.797 4.60001 291.897C-2.79999 292.797 -10.3 293.897 -17.8 294.697C-22.4 295.197 -27 294.997 -31.5 294.297C-46.5 291.997 -61.7 290.997 -77 291.297C-87.5 291.497 -98 291.997 -108.4 293.097C-119.4 294.197 -130.4 295.197 -141.4 296.397C-149.5 297.297 -157.5 298.197 -165.5 299.497C-172.6 300.697 -179.5 302.497 -186.2 304.897C-199.5 309.297 -212.8 313.797 -226 318.297C-227.1 318.497 -228.1 319.397 -229.5 318.397Z" fill="#C5C7C9" fill-opacity="0.05"/>
<path d="M436.001 -29.502C459.901 -29.502 482.301 -24.402 503.301 -15.202C508.401 -13.002 513.301 -10.502 518.301 -8.10195C522.401 -5.90195 526.301 -3.40195 529.901 -0.701954C531.001 0.0980453 532.101 0.998047 531.501 2.39805C531.001 3.49805 529.501 3.89804 527.201 3.59805C524.701 3.19804 522.301 2.79805 519.901 2.19805C511.601 0.298046 503.201 -0.901953 494.601 -1.50195C487.701 -2.00195 480.801 -2.70195 473.801 -3.10195C451.701 -4.60195 429.401 -4.90195 407.201 -3.90195C405.301 -3.80195 403.401 -3.70195 401.401 -3.70195C386.001 -3.60195 370.601 -2.60196 355.301 -1.90195C347.301 -1.60196 339.401 -1.00195 331.401 -0.101954C323.201 0.998047 315.101 2.29805 307.101 4.09805C302.501 5.09805 297.901 5.89804 293.301 6.79805C292.301 6.99805 291.301 6.99804 290.201 6.89804C289.901 6.89804 289.601 6.79805 289.401 6.59805C289.201 6.39804 289.001 6.19805 288.901 5.99805C288.801 5.79805 288.801 5.49805 288.801 5.29805C288.801 5.09805 289.001 4.79805 289.201 4.59805C290.001 3.89804 290.901 3.29805 291.901 2.69805C297.501 -0.801952 303.901 -3.10195 310.301 -5.20195C326.001 -10.502 342.401 -13.602 358.601 -17.402C367.401 -19.402 376.201 -21.602 385.001 -23.602C396.401 -26.202 408.101 -27.902 419.901 -28.602C425.401 -29.002 430.701 -29.202 436.001 -29.502Z" fill="#C5C7C9" fill-opacity="0.05"/>
<path d="M373.1 274.498C377.2 274.798 381.1 275.198 384.9 275.498C388.7 275.798 392.3 275.998 396 276.298C416.3 277.898 436.501 280.798 456.201 285.198C469.501 288.098 482.2 292.398 495 296.698C506.6 300.698 517.901 305.198 528.901 310.198C531.601 311.398 534.2 312.898 536.8 314.198C538.6 315.098 540.2 316.098 542 316.998C548.3 319.998 554.001 323.698 559.201 327.898C560.701 329.098 562.001 330.398 563.201 331.798C563.301 331.998 563.401 332.198 563.401 332.398C563.401 332.598 563.301 332.798 563.201 332.998C563.001 333.198 562.8 333.298 562.6 333.398C562.4 333.498 562.1 333.498 561.8 333.498C560.5 333.398 559.201 333.098 557.901 332.698C553.301 331.098 548.5 329.598 544.1 327.698C533 322.798 521.3 319.698 509.3 316.798C501.5 314.998 493.7 312.898 486 310.898C476.4 308.398 466.7 306.298 456.9 304.398C441.9 301.498 426.8 299.298 411.5 297.898C396.5 296.598 381.4 296.098 366.3 296.498C361.7 296.598 357.1 296.698 352.5 296.698C344.3 296.798 336.7 294.998 329.3 292.398C327.7 291.798 325.8 291.198 325.6 289.498C325.4 287.698 327.3 286.698 328.9 285.898C338.7 280.898 349.1 277.198 360.5 275.698C364.8 275.098 369.1 274.898 373.1 274.498Z" fill="#C5C7C9" fill-opacity="0.05"/>
<path d="M71.3008 168.297C71.6008 167.797 71.7008 167.297 72.1008 167.097C72.8008 166.697 73.6008 166.297 74.4008 165.997C89.8008 161.197 105.101 156.397 120.901 152.597C132.401 149.797 144.201 147.897 156.101 146.797C162.301 146.297 168.401 145.597 174.601 145.197C179.001 144.897 183.501 145.097 187.901 144.897C198.301 144.497 208.601 144.597 219.001 145.097C234.801 145.897 250.401 148.497 265.401 152.697C289.601 159.497 311.901 169.997 331.201 183.897C333.701 185.697 336.101 187.397 338.501 189.297C339.401 189.997 340.101 190.697 340.801 191.497C341.001 191.797 341.101 191.997 341.101 192.297C341.101 192.597 341.101 192.897 341.001 193.197C340.801 193.497 340.501 193.797 340.101 193.997C339.701 194.197 339.201 194.197 338.801 194.097C338.001 194.097 337.301 193.897 336.601 193.797C335.001 193.397 333.501 192.997 332.001 192.497C315.701 187.597 299.601 182.597 283.201 177.797C263.101 171.997 242.501 167.497 221.501 164.397C202.201 161.497 182.801 160.097 163.201 161.097C148.901 161.897 134.501 162.497 120.301 163.597C105.701 164.697 91.2008 166.097 76.8008 168.397C75.0008 168.697 73.2008 168.997 71.3008 168.297Z" fill="#C5C7C9" fill-opacity="0.05"/>
<path d="M406.401 105.398C398.701 105.298 391.001 105.598 383.401 106.498C372.701 107.698 362.001 109.098 351.401 110.598C345.301 111.498 339.301 112.698 333.201 113.798C328.801 114.598 324.201 115.398 319.801 116.198C318.401 116.498 316.801 116.398 315.401 115.998C315.001 115.898 314.701 115.698 314.501 115.498C314.201 115.298 314.101 114.998 314.001 114.698C313.901 114.398 313.901 114.098 314.001 113.798C314.101 113.498 314.301 113.198 314.501 112.998C315.201 112.398 315.901 111.798 316.701 111.298C324.401 106.498 332.301 102.098 341.401 99.298C354.801 95.0981 368.201 90.898 382.301 88.398C394.901 86.198 407.501 84.098 420.301 82.998C432.201 81.998 444.301 82.998 455.801 85.998C470.101 89.698 483.401 95.498 495.301 102.998C509.401 112.098 523.401 121.298 537.001 130.898C539.101 132.398 541.101 134.098 543.101 135.698C543.501 135.998 543.801 136.298 543.901 136.798C544.001 137.198 544.001 137.698 543.701 138.098C543.501 138.498 543.101 138.798 542.601 138.998C542.101 139.198 541.601 139.298 541.101 139.198C539.401 138.998 537.601 138.598 536.001 138.098C533.401 137.298 530.801 136.298 528.301 135.198C521.501 132.198 514.901 128.998 508.101 125.898C500.801 122.598 493.501 119.498 486.301 116.098C477.201 111.998 467.201 109.498 456.801 108.598C440.001 107.098 423.301 105.698 406.401 105.398Z" fill="#C5C7C9" fill-opacity="0.05"/>
<path d="M134.1 189.498C135.1 187.998 136.6 186.798 138.5 186.198C142.5 184.598 146.7 183.398 151.1 182.698C163.7 180.698 176.2 178.098 188.7 175.798C199.4 173.798 210.4 173.098 221.3 173.898C245 175.698 263.8 184.398 276.6 201.198C277.4 202.198 278 203.298 278.5 204.498C278.7 204.898 278.7 205.298 278.6 205.698C278.5 206.098 278.2 206.498 277.9 206.698C277.5 206.998 277.1 207.198 276.6 207.198C276.1 207.298 275.6 207.198 275.2 206.998C274.2 206.698 273.3 206.398 272.4 205.998C260 201.198 246.8 197.798 233.3 195.798C220.3 193.898 207.2 192.698 194.1 191.998C188.5 191.698 182.9 191.098 177.3 190.898C171.1 190.698 164.9 190.598 158.7 190.598C152.2 190.598 145.7 190.698 139.2 190.698C137.4 190.698 135.6 190.798 134.1 189.498Z" fill="#C5C7C9" fill-opacity="0.05"/>
<path d="M512.501 149.297C511.401 148.997 509.601 148.597 508.101 148.097C503.701 146.597 499.401 145.097 495.101 143.497C486.101 140.097 476.901 137.097 467.501 134.397C460.601 132.497 453.401 131.497 446.201 131.297C431.701 130.797 417.201 130.097 402.801 129.297C389.801 128.597 376.701 129.297 363.901 131.597C360.301 132.197 356.701 132.897 353.001 133.397C351.301 133.597 349.501 133.697 347.701 133.597C347.401 133.597 347.101 133.497 346.901 133.297C346.701 133.097 346.501 132.897 346.401 132.697C346.301 132.497 346.301 132.197 346.301 131.997C346.401 131.797 346.501 131.497 346.701 131.297C347.801 130.297 349.201 129.597 350.801 129.197C356.601 127.397 362.401 125.597 368.201 123.797C372.801 122.397 377.301 120.997 382.001 119.697C395.701 115.797 409.801 113.497 424.201 114.597C436.601 115.497 448.801 117.197 460.501 120.997C471.501 124.697 482.101 128.997 492.401 133.797C497.701 136.197 502.901 138.897 508.101 141.397C510.801 142.697 513.201 144.397 515.201 146.297C515.901 146.897 516.601 147.597 515.901 148.597C515.001 149.397 514.201 149.397 512.501 149.297Z" fill="#C5C7C9" fill-opacity="0.05"/>
<path d="M475.9 163.997C471.8 163.497 467.9 163.197 464.1 162.597C451.7 160.497 439.2 160.297 426.5 160.897C411.4 161.697 396.2 160.497 381.6 157.297L380.7 157.097C379.6 156.797 378.2 156.697 378.1 155.497C377.9 154.297 379.1 153.697 380.1 153.297C382.1 152.197 384.2 151.297 386.4 150.697C394.9 148.597 403.2 145.997 412 144.797C424 143.097 435.9 143.197 447.6 145.797C449.5 146.197 451.3 146.697 453 147.397C461.3 150.397 469.2 153.997 476.5 158.397C477.8 159.197 479 160.097 480.1 161.097C480.3 161.297 480.4 161.497 480.5 161.697C480.6 161.897 480.6 162.197 480.5 162.397C480.4 162.597 480.3 162.897 480.1 162.997C479.9 163.197 479.6 163.297 479.3 163.397C478.3 163.697 477.1 163.897 475.9 163.997Z" fill="#C5C7C9" fill-opacity="0.05"/>
<path d="M252.3 211.498C251.9 212.098 251.4 212.498 250.8 212.898C250.2 213.298 249.5 213.498 248.7 213.598C236.1 216.598 223.5 219.698 210.9 222.598C209.1 223.098 207.1 223.198 205.2 222.898C203.3 222.598 201.5 221.898 200 220.898C197.1 218.998 194.3 217.098 191.4 215.198C191.9 213.098 193.8 212.198 195.5 211.398C199.6 209.398 204.1 208.098 208.8 207.398C219 205.898 229.4 205.598 239.6 206.698C242.7 206.998 245.7 207.698 248.5 208.698C249.3 208.898 250.1 209.298 250.7 209.698C251.5 210.298 252 210.898 252.3 211.498Z" fill="#C5C7C9" fill-opacity="0.05"/>
<path d="M720.901 -21.302C720.101 -24.402 719.901 -43.202 720.501 -48.502C721.401 -49.802 723.101 -50.302 724.501 -51.102C747.701 -63.802 773.201 -73.502 800.001 -79.802C812.701 -82.802 825.301 -85.802 838.301 -87.502C847.501 -88.802 856.801 -89.702 866.101 -90.102C870.501 -90.302 875.001 -90.502 879.401 -90.602C896.401 -90.802 913.401 -89.702 930.201 -87.202C963.701 -82.302 996.201 -74.402 1026.8 -62.102C1046 -54.402 1065.6 -47.602 1085.2 -40.802C1110 -32.302 1134.2 -22.502 1157.7 -11.602C1163.7 -8.80196 1169.6 -5.70197 1175.7 -2.90197C1188.4 3.19803 1201.1 9.19804 1213.8 15.198C1214.6 15.598 1215.3 15.898 1216.1 16.198C1228.5 21.098 1240.9 25.998 1253.3 30.998C1263.5 34.898 1274.1 38.098 1284.9 40.598C1288.8 41.398 1292.5 42.598 1296 44.098C1297 44.598 1298 45.098 1298.8 45.798C1299 45.998 1299.2 46.198 1299.3 46.498C1299.4 46.798 1299.4 46.998 1299.4 47.298C1299.3 47.598 1299.2 47.798 1299 48.098C1298.8 48.298 1298.5 48.498 1298.2 48.598C1297.2 48.998 1296 49.198 1294.9 49.198C1293 48.998 1291.1 48.698 1289.2 48.298C1285.5 47.498 1281.8 46.498 1278.1 45.698C1269.5 43.898 1260.9 41.998 1252.3 40.298C1236.3 37.198 1220.7 33.098 1205.5 27.898C1195.7 24.598 1185.7 21.298 1176 17.798C1169.3 15.298 1162.8 12.398 1156.2 9.59803C1153.8 8.59803 1151.4 7.59804 1149 6.79803C1138.2 2.89803 1127.2 -0.701973 1116.5 -4.90197C1096.4 -12.702 1075.8 -19.402 1055.6 -27.002C1041.9 -32.202 1027.8 -36.702 1013.7 -41.002C994.201 -47.102 974.001 -51.702 953.501 -54.702C939.301 -56.802 925.001 -57.402 910.601 -56.702C904.601 -56.402 898.501 -56.102 892.401 -55.802C879.601 -55.102 866.801 -53.802 854.101 -51.902C841.901 -50.102 829.601 -48.202 817.401 -46.302C788.701 -41.702 760.501 -34.702 733.501 -25.302C730.401 -24.202 727.201 -23.202 724.001 -22.102C723.201 -21.902 722.201 -21.602 720.901 -21.302Z" fill="#C5C7C9" fill-opacity="0.05"/>
<path d="M792.301 298.297C793.001 297.597 793.801 296.797 794.601 296.197C804.101 289.797 812.801 282.597 821.301 275.297C832.301 265.797 844.001 256.697 856.201 248.197C857.701 247.197 859.101 246.097 860.601 245.197C878.701 233.797 896.601 222.197 916.701 212.997C931.201 206.397 946.301 200.697 961.701 195.797C963.501 195.197 965.301 194.697 967.101 193.997C988.001 186.297 1010 181.497 1032.4 178.097C1053.7 174.797 1075.2 173.797 1096.9 173.697C1102.4 173.697 1107.9 173.697 1113.3 173.797C1133.3 173.997 1153.2 176.597 1172.3 181.497C1180.1 183.497 1187.7 185.797 1195.3 188.097C1206.4 191.497 1217 195.997 1226.8 201.397C1238.9 207.997 1251 214.597 1261.9 222.597C1266.2 225.897 1270 229.697 1273.3 233.797C1273.7 234.397 1273.9 235.097 1274.1 235.797C1272.2 236.697 1270.5 236.197 1268.9 235.697C1266.8 234.997 1264.8 234.197 1262.8 233.497C1249.4 228.697 1236 223.697 1222.5 219.097C1201.4 211.997 1179.5 206.697 1157 203.397C1140.3 200.897 1123.3 199.497 1106.3 199.397C1101.1 199.397 1096 198.997 1090.7 198.897C1088.3 198.797 1086 198.797 1083.6 198.897C1072 199.797 1060.3 200.697 1048.7 201.697C1038.8 202.597 1029.1 204.097 1019.3 205.597C999.701 208.497 981.001 213.897 962.101 218.697C961.401 218.897 960.701 219.097 960.001 219.297C947.201 223.697 934.301 227.997 921.601 232.597C911.901 236.097 902.401 240.097 892.801 243.997C885.201 247.097 878.201 250.897 871.101 254.697C856.201 262.897 841.901 271.797 828.301 281.397C819.601 287.497 810.001 292.697 799.801 296.797C797.601 297.697 795.201 298.297 792.901 298.997L792.301 298.297Z" fill="#C5C7C9" fill-opacity="0.05"/>
<path d="M721.5 -3.40146C722 -3.80146 722.5 -4.00146 723.2 -4.20146C729.9 -6.50146 736.5 -9.00146 743.2 -11.3015C756.7 -16.0015 770 -20.9015 783.6 -25.4015C803.7 -32.1015 824.6 -36.6015 845.7 -40.3015C853.5 -41.8015 861.4 -42.9015 869.3 -43.5015C875.2 -43.9015 881.1 -44.2015 887.1 -44.2015C916.5 -44.3015 945.6 -39.9015 973 -31.2015C986.1 -27.0015 999 -22.5015 1012 -18.1015C1021.6 -14.9015 1031.2 -11.8015 1040.8 -8.50146C1048.3 -6.00146 1055.8 -3.30146 1063.3 -0.701458C1075 3.19854 1086.5 7.19854 1098.3 10.8985C1113.8 15.6985 1129 21.1985 1143.7 27.4985C1153.9 31.8985 1164.4 35.8985 1175 39.5985C1180 41.2985 1185.3 42.4985 1190.5 44.0985C1203.6 47.8985 1217.1 50.7985 1230.8 52.8985C1237 53.7985 1243.3 54.7985 1249.5 55.7985C1251.1 55.9985 1252.7 56.3985 1254.3 56.6985C1255.2 56.8985 1256 57.1985 1256.8 57.4985C1257.1 57.5985 1257.4 57.8985 1257.6 58.0985C1257.8 58.3985 1257.9 58.6985 1257.9 58.9985C1257.9 59.2985 1257.8 59.5985 1257.6 59.8985C1257.4 60.1985 1257.1 60.3985 1256.8 60.4985C1256 60.7985 1255.1 60.9985 1254.3 61.0985C1247.8 61.4985 1241.3 61.3985 1234.8 60.7985C1226.4 59.9985 1218.1 58.9985 1209.7 57.9985C1207.1 57.5985 1204.5 57.0985 1202 56.3985C1172.8 48.8985 1144.2 39.7985 1116.5 29.0985C1113.7 27.9985 1110.7 27.1985 1107.8 26.1985C1095.3 21.9985 1082.9 17.7985 1070.4 13.6985C1059 9.89854 1047.5 6.49854 1035.8 3.39854C1014.2 -2.40146 992.2 -6.40146 969.9 -9.80146C958 -11.6015 945.9 -12.6015 933.8 -13.8015C919.9 -15.0015 906 -15.5015 892.1 -15.2015C881.3 -15.1015 870.5 -14.2015 859.8 -13.2015C841 -11.6015 822.5 -8.70146 804 -6.10146C790.7 -4.30146 777.5 -2.10146 764.5 0.598541C751.4 3.29854 738.6 6.49854 725.9 10.1985C724.4 10.5985 722.8 10.9985 720.8 11.4985L719.9 11.6985C693.1 20.0985 666.6 28.8985 639.2 36.1985C631.3 38.2985 623.4 40.2985 615.5 42.2985C613 42.9985 610.3 43.2985 607.6 43.1985C606.5 43.0985 605.5 42.8985 605.2 41.8985C605.1 41.4985 605.1 40.9985 605.3 40.5985C605.5 40.1985 605.8 39.7985 606.3 39.5985C607.3 38.8985 608.4 38.2985 609.6 37.6985C617 33.7985 625.2 31.1985 633.2 28.3985C649.3 22.7985 665.4 17.2985 681.3 11.4985C693 7.39854 704.6 2.79854 716.2 -1.70146C717.4 -2.10146 718.7 -2.50146 719.9 -2.80146L721.5 -3.40146Z" fill="#C5C7C9" fill-opacity="0.05"/>
<path d="M720.3 43.6977C720 43.8977 719.7 43.9977 719.4 44.0977C716.4 44.6977 713.5 45.2977 710.5 45.9977C705.1 47.1977 699.7 48.4977 694.3 49.6977C692.8 49.9977 691.3 50.0977 689.9 49.9977C689.5 50.0977 689 49.9977 688.6 49.6977C688.2 49.4977 688 49.1977 687.9 48.7977C687.8 48.3977 687.8 48.0977 688 47.6977C688.2 47.3977 688.5 47.0977 688.8 46.8977C689.8 46.3977 690.8 45.8977 691.9 45.4977C701 41.8977 710.1 38.2977 719.2 34.7977C719.7 34.5977 720.1 34.4977 720.6 34.3977C721.2 34.2977 721.8 34.0977 722.4 33.8977C723.1 33.5977 723.9 33.2977 724.7 32.9977L775.1 14.7977C783 11.9977 790.8 9.09772 798.7 6.29772C815.5 0.397719 833.2 -3.50228 851.2 -5.30228C891.3 -9.30228 932 -5.40228 970 6.09772C974.7 7.49772 979.5 8.89772 984.3 9.99772C998.9 13.6977 1013.2 18.0977 1027.4 22.4977C1035.2 24.8977 1043 27.2977 1050.7 29.4977C1064.9 33.5977 1079.2 37.5977 1093.5 41.5977C1096 42.2977 1098.6 42.7977 1101.2 43.3977C1105.2 44.3977 1109.2 45.1977 1113 46.4977C1126.9 51.0977 1140.7 55.6977 1154.5 60.3977C1162.8 63.2977 1171.1 66.2977 1179.3 69.1977C1180.3 69.4977 1181.2 69.8977 1182 70.3977C1183.2 71.0977 1184.6 71.7977 1184.1 73.2977C1183.8 74.2977 1182.5 74.7977 1180.3 74.4977C1178.7 74.2977 1177.1 73.9977 1175.5 73.5977C1170.4 72.2977 1165.3 70.9977 1160.2 69.6977C1137.9 63.9977 1115.6 58.0977 1093.1 53.0977C1091.1 52.6977 1089.1 52.1977 1087.1 51.6977C1068 46.4977 1048.5 42.2977 1029.2 37.8977C1023.1 36.4977 1017 34.7977 1010.9 33.4977C993.3 29.5977 975.6 26.1977 957.7 23.5977C948.7 22.3977 939.5 21.5977 930.4 21.2977C919 20.7977 907.6 20.8977 896.2 21.5977C882.3 22.4977 868.5 23.5977 854.7 24.6977C844.1 25.4977 833.5 26.2977 822.9 27.0977C797.6 28.8977 772.4 32.3977 747.8 37.6977C739.8 39.3977 731.8 41.0977 723.8 42.8977C723.1 42.9977 722.4 43.0977 721.5 43.1977C721.1 43.2977 720.7 43.4977 720.3 43.6977Z" fill="#C5C7C9" fill-opacity="0.05"/>
<path d="M1105.9 153.398C1107.2 152.598 1108.5 151.898 1109.8 151.198C1122 144.798 1134.8 138.998 1148 134.098C1162.2 128.698 1176.5 123.398 1191.4 119.298C1203.5 116.098 1215.9 113.698 1228.5 112.198C1247.7 109.798 1267.1 109.098 1286.5 109.098C1294.5 109.098 1302.5 109.198 1310.5 109.198C1337.5 109.298 1364.2 113.698 1389.2 122.198C1400.3 125.898 1411.4 129.498 1422.8 132.698C1432.5 135.398 1441.6 139.298 1450 144.098C1472.8 157.098 1493 172.398 1509.3 190.998C1510 191.798 1510.7 192.598 1511.3 193.398C1511.6 193.898 1511.8 194.498 1511.9 195.098C1511.9 195.298 1511.9 195.498 1511.8 195.598C1511.7 195.798 1511.6 195.898 1511.5 196.098C1511.3 196.198 1511.2 196.298 1511 196.398C1510.8 196.498 1510.6 196.498 1510.3 196.498C1508.7 196.398 1507.1 195.898 1505.9 195.098C1481.7 181.498 1455.4 171.098 1429.4 160.298C1414.3 153.998 1398.3 149.698 1381.9 146.098C1361.8 141.798 1341.5 138.498 1321 136.298C1293.7 133.298 1266.2 132.198 1238.6 132.898C1226.9 133.198 1215.3 134.098 1203.7 135.398C1173.7 138.798 1144.5 144.898 1115.7 152.298C1112.6 152.998 1109.5 153.798 1105.9 153.398Z" fill="#C5C7C9" fill-opacity="0.05"/>
<path d="M719.899 167.198C697.999 171.398 676.099 175.498 654.399 180.298C641.799 183.098 629.499 186.398 617.299 190.098C598.399 195.798 579.599 201.698 560.799 207.498C554.599 209.398 548.599 211.898 542.599 214.298C535.299 217.198 527.699 219.598 520.099 222.098C517.899 222.798 515.699 223.498 513.399 223.898C512.099 224.098 510.799 224.098 509.499 223.798C509.099 223.698 508.799 223.598 508.499 223.398C508.199 223.198 507.999 222.898 507.899 222.598C507.799 222.298 507.799 221.998 507.899 221.698C507.999 221.398 508.199 221.098 508.399 220.898C508.999 220.398 509.699 219.898 510.399 219.498C512.599 218.298 514.799 217.098 517.099 215.898C520.699 214.098 524.399 212.198 527.999 210.298C551.299 197.798 575.199 186.098 599.699 175.198C605.799 172.398 612.099 169.998 618.299 167.398C644.299 156.898 670.699 147.098 697.999 138.798C704.499 136.798 710.999 134.898 717.599 132.998C718.299 132.798 718.999 132.698 719.699 132.598L721.199 132.398C721.699 131.998 722.299 131.798 722.899 131.598C738.499 126.798 754.099 121.898 770.399 118.498C780.699 116.298 791.299 114.898 801.899 114.198C806.299 113.898 810.799 113.698 815.199 113.498C836.599 112.798 857.399 115.498 877.799 120.498C894.499 124.598 910.699 130.098 926.099 136.898C942.099 143.798 957.499 151.598 972.199 160.298C974.599 161.698 976.899 163.298 979.099 164.898C979.599 165.298 980.099 165.798 980.499 166.298C980.799 166.698 980.299 167.798 979.699 167.798C978.399 167.898 977.099 167.898 975.799 167.698C972.999 167.298 970.299 166.698 967.599 165.998C961.499 164.398 955.499 162.898 949.499 161.098C936.699 157.298 923.699 154.098 910.399 151.598C898.299 149.298 886.199 146.898 873.999 145.098C864.799 143.798 855.499 143.298 846.199 143.598C832.699 143.998 819.399 145.698 806.399 148.598C786.399 152.898 766.399 157.398 746.399 161.798C739.499 163.298 732.699 164.798 725.799 166.198C724.199 166.598 722.499 166.798 720.799 166.798L719.899 167.198Z" fill="#C5C7C9" fill-opacity="0.05"/>
<path d="M822.4 58.4979C815.7 58.5979 809.1 58.5979 802.4 58.6979C799.5 58.7979 796.5 58.8979 793.6 59.1979C786.1 59.8979 778.6 60.6979 771.2 61.5979C766.1 62.1979 761 62.7979 755.8 63.2979C754 63.3979 752.3 63.2979 750.5 62.9979C750.1 62.8979 749.7 62.7979 749.4 62.4979C749.1 62.2979 748.9 61.9979 748.8 61.5979C748.7 61.2979 748.7 60.8979 748.8 60.5979C748.9 60.2979 749.2 59.9979 749.5 59.7979C750.5 59.0979 751.7 58.4979 752.9 58.1979C755.7 57.3979 758.6 56.8979 761.4 56.1979C772.9 53.4979 784.4 50.6979 795.9 47.8979C805.6 45.5979 815.1 42.9979 825 41.4979C834.6 39.8979 844.3 38.8979 854 38.4979C860.3 38.2979 866.7 37.3979 873 36.9979C888.2 35.8979 903.4 35.2979 918.7 36.0979C936.4 37.0979 954 39.3979 971.2 42.8979C982.8 45.1979 994.3 47.9979 1005.7 51.0979C1022.2 55.4979 1038.7 59.6979 1055 64.4979C1068.9 68.5979 1083.1 72.0979 1097.2 75.4979C1111.3 79.0979 1125.2 83.2979 1138.8 88.0979C1140 88.4979 1141.2 88.9979 1142.3 89.5979C1142.5 89.6979 1142.7 89.8979 1142.8 90.0979C1142.9 90.2979 1143 90.4979 1143 90.7979C1142.8 91.2979 1142.2 91.9979 1141.7 92.0979C1139.9 92.2979 1138.2 92.2979 1136.4 92.1979C1132.4 91.7979 1128.5 91.1979 1124.6 90.5979C1114.2 88.8979 1103.7 87.0979 1093.3 85.4979C1085.9 84.2979 1078.5 83.2979 1071 82.3979C1062.8 81.2979 1054.8 79.6979 1046.8 77.6979C1042.1 76.4979 1037.4 75.5979 1032.6 74.9979C1019.8 73.2979 1006.9 71.4979 994.1 69.9979C982.2 68.5979 970.3 67.3979 958.4 66.7979C942.7 66.0979 926.9 65.3979 911 64.4979C901.3 63.8979 891.6 62.9979 881.9 61.9979C871.8 60.9979 861.7 59.6979 851.6 58.6979C842.7 57.7979 833.9 58.0979 825 58.3979C824.1 58.1979 823.2 58.3979 822.4 58.4979Z" fill="#C5C7C9" fill-opacity="0.05"/>
<path d="M1226.5 252.998C1224.8 253.898 1223.5 253.098 1222.1 252.698C1218 251.398 1213.9 249.798 1209.8 248.598C1195.4 244.198 1180.5 240.798 1165.4 238.298C1147.3 235.198 1129 232.998 1110.6 231.098C1092.5 229.298 1074.4 228.298 1056.2 228.198C1053.1 228.198 1050 228.398 1046.9 228.798C1031.1 230.598 1015.3 232.498 999.601 235.298C989.001 237.198 978.701 239.898 968.501 242.598C948.501 247.898 928.501 253.198 908.601 258.598C905.501 259.398 902.501 260.498 899.601 261.698C882.301 268.698 865.701 276.698 849.901 285.798C846.401 287.798 842.701 289.698 839.101 291.498C837.901 292.098 836.601 292.898 834.801 291.998C835.101 291.298 835.601 290.698 836.101 290.198C838.001 288.498 840.101 286.898 842.201 285.398C852.801 278.098 863.201 270.698 874.501 264.198C900.501 249.498 927.601 236.698 957.301 227.698C976.301 221.898 995.401 216.398 1015.1 212.098C1026.1 209.798 1037.3 208.198 1048.6 207.298C1055.3 206.698 1061.8 205.998 1068.4 205.498C1083 204.198 1097.7 203.898 1112.3 204.598C1119.7 205.098 1127 206.198 1134.1 207.998C1144.7 210.298 1155.2 212.998 1165.4 216.198C1178.2 220.298 1190.2 225.998 1201.1 232.998C1209 238.198 1216.5 243.698 1223.8 249.398C1225 250.398 1226.5 251.198 1226.5 252.998Z" fill="#C5C7C9" fill-opacity="0.05"/>
<path d="M1398.6 310.197C1397.8 310.097 1396.9 309.997 1396.1 309.797C1380.7 306.097 1365.2 303.097 1349.4 300.797C1336.7 298.997 1324 297.497 1311.1 296.697C1297.8 295.697 1284.5 295.397 1271.2 295.497C1257.3 295.797 1243.4 296.597 1229.6 298.097C1181.6 303.197 1136.7 315.897 1094.1 334.497C1079.9 340.697 1066.1 347.597 1052.6 354.997C1051.4 355.697 1050.2 356.297 1049 356.897C1047.9 356.497 1048.2 355.797 1048.3 355.197C1048.7 353.097 1049.9 351.197 1051.8 349.797C1055.2 346.897 1058.9 344.197 1062.7 341.697C1070.1 336.897 1077.4 331.797 1084.9 327.097C1100.1 317.697 1115.8 308.997 1132.2 300.997C1151.2 291.597 1171.7 284.897 1193 279.897C1207.9 276.397 1223.2 273.997 1238.7 272.797C1253.3 271.697 1268 271.797 1282.6 272.997C1305.6 274.897 1327.5 280.097 1349.1 286.797C1362.1 290.897 1374.7 295.697 1386.9 301.297C1391.6 303.497 1395.4 306.397 1399.2 309.397L1398.6 310.197Z" fill="#C5C7C9" fill-opacity="0.05"/>
<path d="M1078.8 375.698C1079.9 373.698 1081.5 371.898 1083.6 370.498C1092 363.998 1100.7 357.698 1109.7 351.798C1125.9 341.198 1143 331.398 1160.8 322.598C1174.6 315.698 1189.7 310.798 1205.5 307.998C1217.8 305.798 1230.2 304.298 1242.8 303.398C1247.1 303.098 1251.4 302.798 1255.6 302.498C1264.9 301.798 1274.2 302.098 1283.5 303.198C1302.1 305.198 1319.8 309.898 1337.2 315.598C1342.6 317.298 1347.9 319.098 1353.1 321.098C1356.8 322.498 1360.5 324.198 1363.9 326.098C1366.2 327.398 1368.4 328.898 1370.3 330.598C1372.5 332.398 1374.6 334.298 1376.7 336.098C1377 336.298 1377.2 336.498 1377.3 336.798C1377.4 337.098 1377.4 337.398 1377.4 337.598C1377.3 337.898 1377.2 338.098 1376.9 338.398C1376.7 338.598 1376.4 338.798 1376.1 338.898C1374 339.598 1371.8 339.798 1369.6 339.498C1365.4 339.098 1361.1 338.498 1357 337.698C1350.8 336.398 1344.7 334.898 1338.7 333.298C1317.6 327.598 1296 325.598 1274 326.198C1238.4 327.098 1203.9 333.298 1170.4 342.898C1147.2 349.798 1124.5 357.898 1102.5 367.198C1096 369.898 1089.7 372.698 1083.3 375.598C1081.7 375.998 1080.4 376.498 1078.8 375.698Z" fill="#C5C7C9" fill-opacity="0.05"/>
<path d="M721.101 87.0989C721.501 86.8989 722.101 86.6989 722.901 86.4989C731.301 84.9989 739.601 83.3989 748.101 82.0989C759.701 80.3989 771.501 79.1989 783.301 78.6989C791.601 78.2989 799.801 77.9989 808.101 77.9989C822.001 77.8989 835.901 78.3989 849.801 79.3989C870.601 80.8989 891.101 84.2989 910.901 89.6989C923.701 93.0989 936.301 97.1989 948.401 101.999C965.501 108.799 980.901 118.199 994.101 129.499C997.801 132.599 1001.2 136.099 1004 139.799C1004.9 140.899 1005.6 142.099 1006.2 143.399C1006.3 143.699 1006.4 143.999 1006.4 144.299C1006.4 144.599 1006.3 144.899 1006.1 145.199C1005.9 145.499 1005.7 145.699 1005.4 145.899C1005.1 146.099 1004.8 146.199 1004.4 146.299C1003.8 146.599 1003.1 146.699 1002.5 146.699C1001.8 146.699 1001.2 146.499 1000.6 146.199C999.201 145.499 997.901 144.699 996.601 143.899C991.001 140.099 985.501 136.299 979.901 132.399C970.601 126.099 960.201 121.099 949.101 117.299C930.201 110.599 910.301 105.899 890.001 103.299C881.801 102.199 873.701 101.099 865.401 100.299C858.501 99.5989 851.501 99.3989 844.601 99.0989C839.401 98.8989 834.201 98.9989 829.001 98.9989C817.901 98.9989 806.801 99.8989 795.901 101.699C785.201 103.399 774.401 105.099 763.701 106.999C750.801 109.299 738.201 112.499 725.901 116.399C724.301 116.899 722.601 117.299 720.301 117.999L719.501 118.099C711.001 120.899 702.501 123.699 693.901 126.599C673.101 133.599 652.401 140.899 631.601 147.799C605.301 156.499 579.001 165.399 552.301 173.399C532.801 179.199 512.801 183.499 492.301 186.199C486.601 186.999 480.801 187.299 475.101 187.899C473.001 188.099 471.001 188.399 469.001 188.799C462.701 190.099 456.301 191.099 449.801 191.799C445.701 192.199 441.601 192.499 437.401 192.699C435.601 192.699 433.901 192.399 432.201 191.999C431.701 191.899 431.301 191.099 431.301 190.499C431.301 190.299 431.401 189.999 431.601 189.799C431.801 189.599 432.001 189.399 432.201 189.299C433.101 188.999 434.101 188.699 435.101 188.499C446.001 186.199 456.901 183.999 467.701 181.399C490.701 175.899 512.901 168.299 533.901 158.699C548.201 152.299 562.201 145.499 576.401 138.899C598.601 128.499 621.201 118.399 644.501 109.699C667.801 100.799 692.001 93.3989 716.801 87.6989C717.701 87.4989 718.501 87.3989 719.401 87.2989L721.101 87.0989Z" fill="#C5C7C9" fill-opacity="0.05"/>
<path d="M856.699 307.997C857.199 305.897 858.899 304.797 860.599 303.697C867.299 299.397 873.799 294.997 880.499 290.897C890.199 284.897 900.499 279.497 911.099 274.697C925.499 268.097 940.299 261.697 955.299 255.997C966.999 251.597 979.299 248.397 991.699 245.597C1006.5 242.197 1021.6 239.597 1036.8 237.897C1051.5 236.197 1066.2 234.897 1081 235.297C1090.3 235.497 1099.6 236.497 1108.7 238.397C1116.3 239.997 1123.9 241.597 1131.4 243.297C1138.4 244.997 1145.1 247.197 1151.5 249.997C1160.7 253.697 1169.3 258.297 1177.3 263.497C1178.7 264.397 1180 265.397 1181.2 266.497C1183.3 268.397 1182.6 270.197 1179.5 270.697C1177.6 270.997 1175.7 271.097 1173.8 270.997C1170 270.697 1166.1 270.297 1162.4 269.697C1146.3 267.097 1130.1 264.997 1113.8 263.097C1087.1 259.897 1060.5 259.697 1033.6 260.897C1024.1 261.297 1014.7 261.797 1005.3 262.597C992.199 263.797 979.199 265.097 966.599 268.497C939.899 275.697 913.699 284.097 888.599 294.597C879.199 298.497 869.899 302.497 860.599 306.497C859.299 306.997 857.999 307.497 856.699 307.997Z" fill="#C5C7C9" fill-opacity="0.05"/>
<path d="M719.9 206.698L701.6 211.098C668.1 219.198 634.6 227.198 601.2 235.398C591.3 237.798 581.6 240.998 571.9 243.898C568.5 244.998 564.9 245.698 561.2 246.098C560 246.198 558.9 246.098 557.7 245.898C557.3 245.798 557 245.698 556.7 245.498C556.4 245.298 556.2 244.998 556.1 244.698C556 244.398 556 244.098 556 243.798C556.1 243.498 556.2 243.198 556.5 242.998C557.1 242.298 557.9 241.798 558.7 241.298C560.8 240.198 563 239.098 565.2 238.198C580.8 231.498 596.8 225.398 613 219.598C638.2 210.598 662.9 200.498 688 191.198C698 187.498 708.2 184.198 718.3 180.698C718.9 180.498 719.4 180.398 720 180.298L721.7 179.998C722.2 179.698 722.7 179.498 723.5 179.298C727.9 178.198 732.1 176.798 736.5 175.598C752.8 171.198 769.5 167.898 786.5 165.798C802.2 163.998 818.1 163.598 833.9 164.598C848.4 165.498 862.7 167.298 876.8 169.998C891.6 172.998 905.9 177.498 919.3 183.498C923.6 185.398 927.7 187.598 931.8 189.798C934.2 190.998 934.7 191.998 934 192.898C932.9 194.198 931.4 193.798 930 193.498C922.7 191.998 915.3 190.898 907.8 190.398C897.1 189.498 886.2 189.198 875.5 189.498C865.9 189.698 856.3 190.098 846.7 190.598C837.7 191.098 828.7 191.798 819.7 192.498L794.9 194.298C784.1 195.098 773.4 196.398 762.8 198.198C750.5 200.198 738.4 202.798 726.2 205.598C724.5 205.998 722.7 206.398 720.9 206.598L719.9 206.698Z" fill="#C5C7C9" fill-opacity="0.05"/>
<path d="M881.5 318.397C882.5 316.897 883.9 315.597 885.5 314.597C888.8 312.297 892.1 309.997 895.6 307.997C913.6 297.597 932.3 288.297 952.5 281.097C971.2 274.297 990.9 269.597 1011.1 267.097C1024.4 265.497 1038 265.297 1051.4 266.597C1068.2 268.197 1084.5 272.297 1099.4 278.897C1102.9 280.397 1106.5 281.897 1110 283.497C1112.4 284.697 1114.6 286.097 1116.9 287.497C1117.3 287.697 1117.6 287.897 1117.9 288.197C1119.4 289.397 1118.9 290.997 1116.9 291.597C1116.5 291.697 1116 291.797 1115.6 291.897C1108.2 292.797 1100.7 293.897 1093.2 294.697C1088.6 295.197 1084 294.997 1079.5 294.297C1064.5 291.997 1049.3 290.997 1034 291.297C1023.5 291.497 1013 291.997 1002.6 293.097C991.6 294.197 980.6 295.197 969.6 296.397C961.5 297.297 953.5 298.197 945.5 299.497C938.4 300.697 931.5 302.497 924.8 304.897C911.5 309.297 898.3 313.797 885 318.297C883.9 318.497 882.9 319.397 881.5 318.397Z" fill="#C5C7C9" fill-opacity="0.05"/>
<path d="M1182.3 168.297C1182.6 167.797 1182.7 167.297 1183.1 167.097C1183.8 166.697 1184.6 166.297 1185.4 165.997C1200.8 161.197 1216.1 156.397 1231.9 152.597C1243.4 149.797 1255.2 147.897 1267.1 146.797C1273.3 146.297 1279.4 145.597 1285.6 145.197C1290 144.897 1294.5 145.097 1298.9 144.897C1309.3 144.497 1319.7 144.597 1330 145.097C1345.8 145.897 1361.4 148.497 1376.4 152.697C1400.6 159.497 1422.9 169.997 1442.2 183.897C1444.7 185.697 1447.1 187.397 1449.5 189.297C1450.4 189.997 1451.2 190.697 1451.8 191.497C1452 191.797 1452.1 191.997 1452.1 192.297C1452.1 192.597 1452.1 192.897 1452 193.197C1451.8 193.497 1451.5 193.797 1451.1 193.997C1450.7 194.197 1450.2 194.197 1449.8 194.097C1449 194.097 1448.3 193.897 1447.6 193.797C1446 193.397 1444.5 192.997 1443 192.497C1426.7 187.597 1410.6 182.597 1394.2 177.797C1374.1 171.997 1353.5 167.497 1332.5 164.397C1313.2 161.497 1293.8 160.097 1274.2 161.097C1259.9 161.897 1245.5 162.497 1231.3 163.597C1216.8 164.697 1202.2 166.097 1187.8 168.397C1186 168.697 1184.2 168.997 1182.3 168.297Z" fill="#C5C7C9" fill-opacity="0.05"/>
<path d="M723.901 219.098C730.601 217.298 737.601 215.898 744.601 214.998C752.601 213.898 760.601 212.898 768.801 212.298C778.401 211.798 788.001 211.698 797.601 212.198C805.901 212.498 814.101 213.298 822.201 214.698C833.601 216.798 844.601 220.298 854.701 225.198C856.501 225.998 858.201 227.098 859.701 228.198C861.901 229.898 861.001 231.998 858.101 232.498C857.101 232.698 856.101 232.798 855.001 232.698C852.201 232.698 849.401 232.598 846.601 232.498C837.701 232.098 828.901 232.098 820.001 232.698C813.701 233.098 807.301 233.598 801.001 234.298C788.801 235.598 776.901 238.098 765.101 240.698C752.701 243.498 740.301 246.098 727.801 248.798C725.701 249.298 723.501 249.598 721.501 249.898L720.001 249.998C713.001 250.998 706.001 252.098 699.001 252.898C689.001 254.098 679.001 255.098 669.201 256.398C657.001 258.098 645.001 261.098 633.601 265.098C627.901 267.098 622.101 268.998 616.301 270.898C613.701 271.698 611.001 272.298 608.301 272.898C607.701 272.998 607.101 273.098 606.601 273.198C606.101 273.298 605.601 273.198 605.101 272.998C604.601 272.798 604.201 272.498 604.001 272.098C603.801 271.698 603.701 271.298 603.801 270.798C603.901 270.298 604.201 269.998 604.601 269.698C605.801 268.798 607.001 267.898 608.401 267.198C618.001 262.198 627.601 257.098 637.401 252.298C647.401 247.398 657.601 242.598 667.901 238.198C683.801 231.398 699.901 225.098 717.101 220.598C718.101 220.298 719.101 220.098 720.001 219.798L723.901 219.098Z" fill="#C5C7C9" fill-opacity="0.05"/>
<path d="M1024.6 299.899C1031.8 300.399 1039 300.499 1046.2 301.999C1050.8 302.999 1055.3 304.299 1059.6 305.799C1061 306.299 1062.2 306.899 1063.4 307.599C1063.7 307.799 1064 307.999 1064.2 308.299C1064.4 308.599 1064.5 308.899 1064.6 309.199C1064.6 309.499 1064.6 309.799 1064.5 310.099C1064.4 310.399 1064.2 310.699 1063.9 310.899C1063.3 311.499 1062.7 311.999 1061.9 312.299C1053.5 316.299 1045.4 320.999 1036.1 323.599C1026.4 326.299 1016.7 328.799 1006.4 329.599C999.501 330.199 992.501 330.199 985.601 329.699C976.001 328.799 966.401 329.399 956.801 330.399C942.601 331.999 928.601 334.599 914.901 338.399C913.801 338.699 912.601 338.899 911.501 339.099C911.001 339.199 910.501 339.099 910.001 338.899C909.501 338.699 909.201 338.299 909.001 337.899C908.701 336.999 909.401 336.499 910.201 336.099C911.901 335.299 913.701 334.699 915.301 333.899C936.401 324.299 958.201 315.699 980.501 308.199C985.201 306.599 989.801 305.099 994.501 303.599C1004.1 300.599 1014.4 299.299 1024.6 299.899Z" fill="#C5C7C9" fill-opacity="0.05"/>
<path d="M1030.8 111.498C1019.7 111.298 1008.8 109.398 998.5 105.898C985.4 101.398 972 97.4977 958.5 93.7977C955.4 92.9977 952.4 91.8977 949.4 90.7977C948.3 90.3977 947.3 89.8977 946.3 89.3977C945.8 89.1977 945.5 88.8977 945.3 88.4977C945.1 88.0977 945.1 87.6977 945.2 87.1977C945.4 86.7977 945.7 86.4977 946.2 86.1977C946.6 85.9977 947.2 85.7977 947.7 85.8977C948.7 85.8977 949.8 85.8977 950.8 85.9977C954.1 86.3977 957.6 86.6977 960.9 87.1977C967.2 88.0977 973.6 87.8977 979.9 87.9977C991.1 88.3977 1002.3 88.6977 1013.6 89.1977C1020.1 89.3977 1026.6 89.5977 1033.1 90.0977C1039.6 90.5977 1046 91.2977 1052.5 91.8977C1059 92.5977 1065.4 93.0977 1071.8 93.8977C1078.2 94.6977 1084.4 95.4977 1090.6 96.3977C1092.1 96.5977 1094.2 96.6977 1094.2 98.4977C1094.2 99.8977 1092.3 100.198 1091 100.598C1081.7 103.498 1072.3 105.998 1062.8 108.298C1053.7 110.598 1044.4 111.498 1030.8 111.498Z" fill="#C5C7C9" fill-opacity="0.05"/>
<path d="M719.9 288.798C713.6 289.098 707.2 289.398 700.9 289.698C687 290.398 673.4 292.898 659.8 294.898C657.3 295.198 654.8 295.398 652.3 295.398C651.8 295.498 651.2 295.398 650.8 295.198C650.3 294.998 650 294.598 649.8 294.198C649.6 293.798 649.6 293.398 649.7 292.898C649.8 292.498 650.1 292.098 650.4 291.798C651 291.298 651.7 290.798 652.4 290.298C654.2 289.198 656 288.198 658 287.198C663.3 284.598 668.7 281.898 674 279.398C688.4 272.598 704 267.998 720 264.498L722.9 263.898C729.3 262.498 735.9 261.498 742.5 260.898C752.2 260.198 762 259.898 771.7 260.098C776.4 260.198 781.1 260.598 785.9 260.898L797.4 261.598H798.3C799.7 261.698 801.1 261.898 801.6 263.098C802.1 264.298 801.1 265.098 800 265.898C799.5 266.198 799.1 266.498 798.6 266.798C790.2 271.398 781.4 275.398 772.3 278.898C762.3 282.498 751.7 285.098 740.9 286.498C735.1 287.298 729.2 287.798 723.3 288.298L719.9 288.798Z" fill="#C5C7C9" fill-opacity="0.05"/>
</g>
</svg>
