<svg width="1231" height="309" viewBox="0 0 1231 309" fill="none" xmlns="http://www.w3.org/2000/svg">
<g opacity="0.1" clip-path="url(#clip0_8785_31054)">
<g opacity="0.5">
<path d="M410.18 160.629C409.96 160.699 409.75 160.759 409.53 160.829C407.25 161.529 404.98 162.219 402.74 163.029C400.5 163.839 398.35 164.739 396.3 165.879C395.29 166.439 394.3 167.059 393.37 167.749C392.9 168.089 392.45 168.449 392 168.829C391.48 169.269 391.07 169.709 390.49 170.089C387.63 171.959 384.87 173.509 381.78 174.949C378.69 176.389 375.58 177.879 372.51 179.379C366.38 182.379 360.32 185.489 354.31 188.719C342.45 195.099 330.98 202.069 319.54 209.179C278.22 234.869 236.95 260.609 195.73 286.399C171.49 301.409 147.32 316.459 122.73 331.119C99.1298 345.219 74.3398 357.869 48.5698 368.949C21.7098 380.519 -6.5302 389.139 -34.9102 397.419C-71.0102 407.939 -107.63 416.579 -145.52 420.289C-166.83 422.539 -188.28 423.159 -209.59 422.149C-214.16 422.239 -218.54 420.959 -221.95 418.539C-221.22 417.009 -220.11 415.619 -218.69 414.469C-217.27 413.309 -215.58 412.409 -213.72 411.829C-211.02 410.619 -208.23 409.569 -205.36 408.669C-187.96 403.379 -171.2 396.639 -155.33 388.569C-134.71 378.349 -114.3 367.859 -93.9802 357.229C-71.0202 345.239 -47.8502 333.589 -23.7602 323.309C-10.0102 317.439 3.60979 311.289 16.9598 304.769C51.9198 287.479 85.6198 268.449 117.88 247.789C141.27 232.889 166.33 219.909 192.67 209.059C204.11 204.349 215.63 199.499 226.69 194.449C231.6 192.209 236.43 189.799 241.24 187.359C243.8 186.059 246.47 184.969 248.89 183.429C251.3 181.899 253.57 180.139 255.68 178.219C257.66 176.419 260.7 175.349 263.08 174.119C272 169.499 281.02 165.069 290.12 160.819C297.26 157.479 304.46 154.249 311.7 151.129C381.2 121.159 454.16 101.779 531.43 95.6491C546.66 94.4491 561.94 94.4791 577.23 93.9891C595.59 93.3991 613.94 93.8591 632.14 95.3591C663.23 97.9391 693.59 103.239 724.07 108.229C725.19 108.339 726.29 108.589 727.31 108.979C729.84 110.149 733.62 110.529 733.51 113.689C733.4 116.839 730.06 117.869 727.09 118.429C722.62 119.379 718.07 119.969 713.5 120.219C703.96 120.539 694.41 120.519 684.87 120.499C658.54 120.469 632.23 120.249 605.87 122.089C568.45 124.519 531.25 129.739 494.73 137.679C466.09 144.059 437.99 152.019 410.14 160.659L410.18 160.629Z" fill="#EBF7F9"/>
</g>
<g opacity="0.3">
<path d="M196.85 183.89C195.54 184.65 194.26 185.93 193.24 187.04C192.35 188 191.41 188.73 190.38 189.56C189.36 190.38 188.19 191 187.03 191.61C182.14 194.19 177.4 197.17 172.61 199.95C159.09 207.8 145.55 215.63 131.94 223.33C107.29 237.28 82.7703 251.39 57.7203 264.81C26.1503 281.82 -7.46973 295.96 -42.5297 306.95L-145.16 338.98C-184.16 351.17 -223.45 362.44 -264.37 368.82C-282.62 371.66 -300.89 371.14 -319.18 371.92C-320.71 371.98 -322.23 371.79 -323.64 371.36C-325.2 370.64 -326.65 369.77 -327.97 368.79C-325.5 367.61 -322.95 366.55 -320.33 365.63C-309.11 362.25 -297.85 359.37 -286.66 355.64C-217.27 332.29 -150.25 304.05 -86.3697 271.24C-78.6997 267.3 -71.1197 263.2 -63.5897 259.01C-56.0497 254.81 -48.5697 250.51 -41.1197 246.15C-33.6897 241.8 -26.2897 237.39 -18.9097 232.95C-11.5297 228.51 -4.16974 224.07 3.21027 219.64C10.5903 215.21 17.9803 210.78 25.4103 206.43C26.6703 205.69 27.7303 204.58 28.8303 203.62L32.4003 200.52C35.2803 198.02 38.8103 196.06 42.1403 194.22L218.1 91.4903C234.34 82.1203 251.37 73.7503 269.02 66.4303C296.99 54.6703 326.16 45.3403 354.95 35.2103C402.47 18.4903 451.93 9.99028 502.43 5.77028C541.72 2.57028 581.06 1.51028 620.39 0.0202808C622.27 -0.0997192 624.13 0.140281 625.85 0.730281C626.41 1.08028 626.87 1.53028 627.21 2.04028C627.55 2.55028 627.76 3.12028 627.83 3.71028C627.81 4.19028 627.67 4.67028 627.4 5.10028C627.14 5.54028 626.76 5.92028 626.3 6.23028C625.34 6.76028 624.26 7.12028 623.14 7.29028C586.81 15.7103 550.44 23.9503 514.2 32.6303C482.66 39.9103 451.89 49.5303 422.27 61.3803C388.39 75.5203 355.77 91.7403 324.68 109.89C282.03 134.51 239.42 159.18 196.85 183.89Z" fill="#CDE2EC"/>
</g>
<path opacity="0.3" d="M1229.16 363.07C1229.68 361.74 1230.01 360.38 1230.17 359C1229.53 352.09 1228.88 345.17 1228.24 338.28C1228.13 336.86 1227.67 335.49 1226.89 334.24C1226.12 332.99 1225.04 331.89 1223.73 331.01C1212.09 322.33 1200.7 313.37 1188.4 305.07C1174.65 295.54 1160.35 286.54 1146.03 277.4C1085.99 239.43 1021.02 208.58 948.87 188.25C919.15 179.95 888.68 173.45 857.68 168.81C852.09 167.97 846.46 167.16 840.98 166.01C802.17 157.67 762.4 152.29 722.17 149.92C686.06 147.73 649.61 149.24 613.63 154.42C590.19 157.88 566.84 161.65 543.73 166.68C505.85 175.04 468.77 186.01 432.89 199.48C395.79 213.26 359.99 229.1 324.33 245.27C308.04 252.66 291.64 259.88 275.18 267.02C249.24 278.54 224.43 291.81 201.02 306.69C167.5 327.56 134.13 348.61 100.44 369.23C65.1603 391.37 28.0203 411.35 -10.6597 429.02C-23.9397 435.01 -37.3397 440.71 -50.5897 446.73C-58.0297 450.13 -65.3297 453.79 -72.6497 457.56C-75.5997 459.14 -78.3297 460.99 -80.7897 463.08C-81.2497 463.56 -81.5597 464.12 -81.7197 464.71C-81.8697 465.3 -81.8597 465.91 -81.6897 466.49C-81.3397 467 -80.8497 467.43 -80.2597 467.75C-79.6697 468.07 -78.9997 468.28 -78.2897 468.36C-76.0097 468.36 -73.7297 468.2 -71.4697 467.89C-12.0497 463.86 44.5303 449.66 99.5803 430.21C119.48 423.17 139.07 415.52 158.67 408.06C177.9 400.49 196.12 391.17 212.97 380.28C229.9 369.47 246.45 358.32 263.02 347.07C309.53 315.91 358.91 287.87 410.66 263.23C426.49 255.8 443.08 249.6 460.2 244.7C492.11 235.05 524.76 227.38 557.88 221.74C575.57 218.83 593.5 216.91 611.38 215.36C644.53 212.47 677.76 211.07 711.01 210.19C754.9 209.44 798.69 211.36 842.01 215.96C849.9 216.85 857.71 218.08 865.42 219.64C954.98 236.28 1040.36 264.48 1118.5 303.21C1151.75 319.73 1184.16 337.11 1215.23 356.22C1218.56 358.29 1221.92 360.36 1225.32 362.18C1226.55 362.59 1227.84 362.89 1229.15 363.06L1229.16 363.07Z" fill="#CDE2EC"/>
<path opacity="0.5" d="M22.8704 501.149C26.6704 504.219 30.6604 503.639 34.8504 502.849C53.2504 499.449 71.7304 496.349 90.0204 492.719C118.52 487.359 146.58 480.299 173.98 471.589C198.51 463.789 221.97 453.709 243.9 441.529C274.34 424.319 304.69 407.009 334.94 389.579C393.39 356.149 455.89 328.029 521.3 305.729C555.21 294.079 590.17 284.849 625.79 278.139C635.91 276.249 646.12 274.489 656.37 273.389C663.98 272.839 671.61 272.609 679.23 272.719C710.15 271.969 741.03 272.719 771.7 274.999C847.14 280.989 920.49 297.069 988.91 322.609C1024.02 335.549 1058.85 348.899 1092.81 363.719C1111.91 371.789 1130.31 380.899 1147.9 390.989C1153.09 394.029 1158.74 396.549 1164.29 399.149C1167.09 400.439 1167.27 400.229 1172.86 398.349C1173.74 394.439 1170.6 391.939 1168.18 389.269C1159.12 378.949 1148.4 369.719 1136.31 361.819C1118.87 350.499 1100.62 340.029 1081.67 330.459C1054.72 316.849 1026.74 304.639 997.88 293.889C943.9 273.899 888.84 256.049 830.17 246.169C786.24 238.779 741.91 233.759 696.81 233.649C662.46 233.579 628.04 234.189 593.98 240.349C548.92 248.509 503.77 256.229 460.38 270.209C432.24 279.109 405 289.989 378.98 302.739C370.71 306.859 362.92 311.679 354.85 316.119C343.88 322.189 333.21 328.669 321.93 334.149C299.88 344.879 278.68 356.819 258.47 369.869C242.47 380.069 226.55 390.349 210.49 400.509C190.94 412.669 170.42 423.689 149.09 433.489C132.51 441.219 116.81 450.029 100.88 458.579C89.9004 464.529 79.2404 471.109 67.9904 476.939C56.2304 483.129 44.0304 488.689 32.0004 494.569C28.7504 496.159 24.8204 497.019 22.8604 501.129L22.8704 501.149Z" fill="#EBF7F9"/>
</g>
<defs>
<clipPath id="clip0_8785_31054">
<rect width="1558.17" height="540.22" fill="white" transform="translate(-328)"/>
</clipPath>
</defs>
</svg>
