<svg width="1169" height="437" viewBox="0 0 1169 437" fill="none" xmlns="http://www.w3.org/2000/svg">
<g clip-path="url(#clip0_8785_31064)">
<g opacity="0.1">
<g opacity="0.5">
<path d="M817.6 276.5C817.8 276.4 818 276.4 818.2 276.3C820.5 275.6 822.7 274.9 825 274.1C827.2 273.3 829.4 272.4 831.4 271.3C832.4 270.7 833.4 270.1 834.3 269.4C834.8 269.1 835.2 268.7 835.7 268.3C836.2 267.9 836.6 267.4 837.2 267C840 265.1 842.8 263.6 845.9 262.2C849 260.8 852.1 259.3 855.1 257.8C861.2 254.8 867.3 251.7 873.2 248.5C885 242.1 896.5 235.2 907.9 228.1C949.1 202.5 990.2 176.8 1031.3 151.1C1055.5 136.1 1079.6 121.1 1104.1 106.5C1127.6 92.4003 1152.3 79.8003 1178 68.8003C1204.8 57.3003 1232.9 48.7003 1261.2 40.4003C1297.2 29.9003 1333.7 21.3003 1371.5 17.6003C1392.7 15.4003 1414.1 14.7003 1435.4 15.7003C1440 15.6003 1444.3 16.9003 1447.7 19.3003C1447 20.8003 1445.9 22.2003 1444.4 23.4003C1443 24.6003 1441.3 25.5003 1439.4 26.0003C1436.7 27.2003 1433.9 28.3003 1431.1 29.1003C1413.8 34.4003 1397 41.1003 1381.2 49.1003C1360.6 59.3003 1340.3 69.8003 1320 80.3003C1297.1 92.3003 1274 103.9 1250 114.1C1236.3 120 1222.7 126.1 1209.4 132.6C1174.5 149.8 1140.9 168.8 1108.8 189.4C1085.5 204.3 1060.5 217.2 1034.2 228C1022.8 232.7 1011.3 237.5 1000.3 242.6C995.4 244.8 990.6 247.2 985.8 249.7C983.3 251 980.6 252.1 978.2 253.6C975.8 255.1 973.5 256.9 971.4 258.8C969.4 260.6 966.4 261.7 964 262.9C955.1 267.5 946.1 271.9 937 276.2C929.9 279.5 922.7 282.8 915.5 285.9C846.2 315.8 773.5 335.1 696.4 341.2C681.2 342.4 666 342.4 650.7 342.9C632.4 343.5 614.1 343 596 341.5C565 338.9 534.7 333.6 504.3 328.7C503.2 328.6 502.1 328.3 501.1 328C498.6 326.8 494.8 326.4 494.9 323.3C495 320.2 498.3 319.1 501.3 318.6C505.8 317.7 510.3 317.1 514.8 316.8C524.3 316.5 533.8 316.5 543.3 316.5C569.5 316.5 595.8 316.7 622.1 314.9C659.4 312.5 696.5 307.3 732.9 299.4C761.8 293 789.8 285.1 817.6 276.5Z" fill="#EBF7F9"/>
</g>
<g opacity="0.3">
<path d="M1030.2 253.3C1031.5 252.5 1032.8 251.3 1033.8 250.2C1034.7 249.2 1035.6 248.5 1036.7 247.7C1037.7 246.9 1038.9 246.3 1040 245.7C1044.9 243.1 1049.6 240.2 1054.4 237.4C1067.9 229.6 1081.4 221.8 1094.9 214.1C1119.5 200.2 1143.9 186.1 1168.9 172.7C1200.4 155.7 1233.9 141.6 1268.9 130.7L1371.2 98.7996C1410.1 86.5996 1449.3 75.3996 1490.1 69.0996C1508.3 66.2996 1526.5 66.7996 1544.7 65.9996C1546.2 65.8996 1547.7 66.0996 1549.1 66.5996C1550.7 67.2996 1552.1 68.1996 1553.4 69.1996C1550.9 70.3996 1548.4 71.3996 1545.8 72.3996C1534.6 75.7996 1523.4 78.5996 1512.2 82.3996C1443 105.7 1376.2 133.8 1312.5 166.6C1304.9 170.5 1297.3 174.6 1289.8 178.8C1282.3 183 1274.8 187.3 1267.4 191.6C1260 195.9 1252.6 200.3 1245.3 204.8C1237.9 209.2 1230.6 213.7 1223.2 218.1C1215.8 222.5 1208.5 226.9 1201.1 231.3C1199.8 232 1198.8 233.1 1197.7 234.1C1196.5 235.1 1195.3 236.2 1194.1 237.2C1191.2 239.7 1187.7 241.6 1184.4 243.5L1009 345.9C992.8 355.2 975.8 363.6 958.2 370.9C930.3 382.6 901.2 391.9 872.5 402C825.1 418.7 775.8 427.1 725.5 431.4C686.3 434.6 647.1 435.7 607.9 437.1C606 437.2 604.2 437 602.5 436.4C601.9 436 601.5 435.6 601.1 435.1C600.8 434.6 600.6 434 600.5 433.4C600.5 432.9 600.7 432.4 600.9 432C601.2 431.6 601.5 431.2 602 430.9C603 430.4 604 430 605.2 429.8C641.4 421.4 677.7 413.2 713.8 404.5C745.2 397.2 775.9 387.7 805.5 375.8C839.3 361.7 871.8 345.5 902.8 327.4C945.3 302.5 987.8 277.9 1030.2 253.3Z" fill="#CDE2EC"/>
</g>
<path opacity="0.3" d="M1 74.5996C0.5 75.8996 0.2 77.2996 0 78.6996C0.6 85.5996 1.3 92.4996 1.9 99.3996C2 100.8 2.5 102.2 3.2 103.4C4 104.6 5 105.7 6.4 106.6C18 115.2 29.4 124.2 41.6 132.5C55.3 142 69.6 151 83.8 160.1C143.7 198 208.4 228.7 280.4 249C310 257.3 340.4 263.8 371.3 268.4C376.9 269.2 382.5 270 387.9 271.2C426.6 279.5 466.2 284.9 506.4 287.2C542.4 289.4 578.7 287.9 614.6 282.7C638 279.2 661.2 275.5 684.3 270.5C722.1 262.2 759 251.2 794.8 237.8C831.8 224.1 867.5 208.3 903 192.1C919.2 184.7 935.6 177.5 952 170.4C977.9 158.9 1002.6 145.7 1025.9 130.9C1059.3 110.1 1092.6 89.0996 1126.2 68.4996C1161.4 46.3996 1198.4 26.4996 1237 8.89961C1250.2 2.89961 1263.6 -2.80039 1276.8 -8.80039C1284.2 -12.2004 1291.5 -15.8004 1298.8 -19.6004C1301.7 -21.2004 1304.5 -23.0004 1306.9 -25.1004C1307.4 -25.6004 1307.7 -26.1004 1307.8 -26.7004C1308 -27.3004 1307.9 -27.9004 1307.8 -28.5004C1307.4 -29.0004 1307 -29.4004 1306.4 -29.8004C1305.8 -30.1004 1305.1 -30.3004 1304.4 -30.4004C1302.1 -30.4004 1299.9 -30.2004 1297.6 -29.9004C1238.4 -25.9004 1181.9 -11.7004 1127.1 7.69961C1107.3 14.6996 1087.7 22.2996 1068.2 29.7996C1049 37.3996 1030.9 46.5996 1014.1 57.4996C997.2 68.2996 980.7 79.3996 964.2 90.5996C917.8 121.7 868.6 149.6 817 174.2C801.2 181.6 784.7 187.8 767.6 192.7C735.8 202.3 703.2 210 670.2 215.6C652.6 218.5 634.7 220.4 616.9 222C583.9 224.9 550.7 226.3 517.6 227.2C473.8 227.9 430.2 226 387 221.5C379.1 220.6 371.3 219.4 363.7 217.8C274.4 201.2 189.3 173.1 111.4 134.5C78.2 118 45.9 100.7 15 81.6996C11.7 79.5996 8.3 77.5996 4.9 75.7996C3.6 75.0996 2.3 74.7996 1 74.5996Z" fill="#CDE2EC"/>
<path opacity="0.5" d="M1203.7 -63.1004C1199.9 -66.2004 1195.9 -65.6004 1191.8 -64.8004C1173.5 -61.4004 1155 -58.3004 1136.8 -54.7004C1108.4 -49.4004 1080.4 -42.3004 1053.1 -33.6004C1028.6 -25.8004 1005.2 -15.8004 983.4 -3.60041C953 13.5996 922.8 30.7996 892.6 48.1996C834.3 81.4996 772 109.6 706.8 131.8C673 143.4 638.1 152.6 602.6 159.3C592.5 161.2 582.3 162.9 572.1 164C564.5 164.6 556.9 164.8 549.3 164.7C518.5 165.4 487.7 164.7 457.1 162.4C381.9 156.4 308.8 140.4 240.5 114.9C205.5 102 170.8 88.6996 136.9 73.8996C117.9 65.8996 99.5003 56.7996 82.0003 46.6996C76.8003 43.6996 71.2003 41.1996 65.7003 38.5996C62.9003 37.2996 62.7003 37.4996 57.2003 39.3996C56.3003 43.2996 59.5003 45.7996 61.9003 48.4996C70.9003 58.7996 81.6003 67.9996 93.7003 75.8996C111.1 87.1996 129.3 97.5996 148.2 107.2C175.1 120.8 203 132.9 231.7 143.7C285.5 163.6 340.4 181.4 398.9 191.3C442.7 198.7 486.9 203.7 531.9 203.8C566.1 203.9 600.5 203.3 634.4 197.1C679.3 189 724.3 181.3 767.6 167.3C795.7 158.4 822.8 147.6 848.8 134.9C857 130.8 864.8 126 872.9 121.6C883.8 115.6 894.5 109.1 905.7 103.6C927.7 92.8996 948.8 80.9996 969 67.9996C985 57.7996 1000.8 47.5996 1016.8 37.4996C1036.3 25.3996 1056.7 14.3996 1078 4.59959C1094.5 -3.10041 1110.2 -11.9004 1126.1 -20.4004C1137 -26.3004 1147.7 -32.9004 1158.9 -38.7004C1170.6 -44.9004 1182.8 -50.4004 1194.8 -56.3004C1197.8 -58.1004 1201.8 -59.0004 1203.7 -63.1004Z" fill="#EBF7F9"/>
<path opacity="0.3" d="M1100.9 -100.2C1097.8 -102.9 1094 -101.9 1090.2 -101.3C1055.7 -95.4005 1021.8 -87.0005 988.8 -76.2005C929.1 -56.5005 871.4 -32.6005 816.5 -4.60049C777.8 15.3995 736.6 31.7995 693.7 44.0995C673.3 49.6995 652.5 54.3995 631.6 58.1995C626.7 59.0995 622 60.2995 617.2 61.4995C600 66.0995 582.3 68.9995 564.4 70.1995C490 74.3995 417 69.2995 346.1 52.1995C316 44.8995 287.9 33.6995 260.8 20.8995C252.7 17.0995 244.6 13.0995 236.4 9.29951C233.8 8.09951 231.1 6.9995 228.2 6.1995C227.1 5.8995 225.5 6.5995 223.4 6.9995C223.8 8.29951 224.5 9.4995 225.4 10.6995C232.6 16.5995 239.5 22.6995 247.1 27.9995C264.4 40.2995 283.1 51.2995 302.8 60.8995C362.8 89.9995 429.5 108.7 499.2 116.1C534.9 119.6 571.1 120.6 607.3 118.9C617.6 118.6 627.8 117.4 637.9 115.3C643.9 114.3 650 113.6 656 113.2C722.7 106.8 787.1 87.0995 843.6 55.7995C863.9 44.6995 883.6 32.7995 903 20.4995C927 5.29951 950.4 -10.5005 973.9 -26.2005C992.6 -39.1005 1012.8 -50.5005 1034.2 -60.1005C1041.7 -63.4005 1048.9 -67.1005 1055.8 -71.2005C1069.1 -78.9005 1082.3 -86.8005 1095.4 -94.7005C1098.1 -95.9005 1101.2 -97.1005 1100.9 -100.2Z" fill="#CDE2EC"/>
</g>
</g>
<defs>
<clipPath id="clip0_8785_31064">
<rect width="1553.5" height="538.6" fill="white" transform="translate(0 -102)"/>
</clipPath>
</defs>
</svg>
