<svg width="400" height="148" viewBox="0 0 400 148" fill="none" xmlns="http://www.w3.org/2000/svg">
<path d="M367.626 113.281C367.184 113.28 366.758 113.108 366.435 112.801C366.112 112.495 365.916 112.075 365.886 111.627C365.932 112.069 366.133 112.479 366.452 112.783C366.772 113.087 367.189 113.263 367.626 113.281Z" fill="#313E4E"/>
<path d="M382.278 33.9907V111.378C382.293 111.865 382.117 112.338 381.79 112.694C381.462 113.051 381.009 113.262 380.528 113.281H367.626C367.189 113.263 366.772 113.087 366.452 112.783C366.133 112.479 365.932 112.069 365.886 111.627C365.882 111.544 365.882 111.461 365.886 111.378V43.313C365.886 40.3838 367.029 37.5735 369.066 35.4961C371.103 33.4188 373.867 32.2432 376.756 32.2261H380.538H380.774C381.194 32.2845 381.578 32.4959 381.855 32.8207C382.131 33.1455 382.282 33.5615 382.278 33.9907Z" fill="#313E4E"/>
<path d="M382.278 33.9169V33.9908C382.279 33.5618 382.127 33.1469 381.848 32.8238C381.57 32.5007 381.185 32.2915 380.765 32.2354C381.18 32.2703 381.567 32.4631 381.847 32.775C382.128 33.0868 382.282 33.4948 382.278 33.9169Z" fill="#313E4E"/>
<path d="M217.604 39.8946V110.334C217.604 110.785 217.427 111.217 217.113 111.536C216.798 111.855 216.372 112.034 215.927 112.034H212.674C210.988 112.036 209.325 111.642 207.814 110.884C206.303 110.126 204.985 109.024 203.964 107.664C198.497 111.359 191.763 113.207 183.763 113.207C173.485 113.207 165.285 110.17 159.162 104.097C153.039 98.0241 149.968 89.9244 149.95 79.7984V33.8614C149.935 33.4135 150.095 32.9779 150.396 32.6491C150.696 32.3204 151.112 32.1252 151.554 32.106H163.399C163.839 32.1276 164.252 32.3238 164.551 32.6523C164.849 32.9807 165.008 33.4151 164.993 33.8614V79.7614C164.912 83.1489 165.562 86.5134 166.898 89.6196C167.924 92.1225 169.622 94.2831 171.8 95.856C173.658 97.16 175.693 98.1839 177.841 98.8956C181.684 100.201 185.842 100.201 189.686 98.8956C191.831 98.1781 193.865 97.1546 195.727 95.856C197.897 94.2756 199.594 92.1172 200.629 89.6196C201.947 86.5249 202.591 83.1778 202.515 79.8076V42.7125C202.637 39.8561 203.843 37.158 205.88 35.1816C207.918 33.2052 210.629 32.1033 213.449 32.106H215.945C216.169 32.1084 216.391 32.1558 216.597 32.2456C216.803 32.3353 216.989 32.4656 217.145 32.6288C217.301 32.7921 217.423 32.9851 217.505 33.1967C217.587 33.4082 217.627 33.6342 217.622 33.8614V39.8946H217.604Z" fill="#313E4E"/>
<path d="M284.392 63.8147V87.0049C284.326 86.7989 284.292 86.5839 284.292 86.3674V62.9924C284.292 62.6321 284.292 62.2625 284.292 61.9022C284.358 62.5181 284.392 63.1556 284.392 63.8147Z" fill="#313E4E"/>
<path d="M348.246 62.9924V111.498C348.226 112.079 347.989 112.631 347.583 113.043C347.177 113.454 346.633 113.695 346.059 113.715H335.125C334.838 113.715 334.555 113.658 334.29 113.546C334.025 113.435 333.784 113.271 333.582 113.065C333.38 112.859 333.22 112.615 333.111 112.346C333.002 112.077 332.946 111.789 332.948 111.498V63.8147C332.948 53.9011 326.287 46.094 316.301 46.094C306.934 46.094 300.392 52.9587 299.617 61.8837C299.617 62.2532 299.617 62.6228 299.617 62.9924V110.685C299.599 111.265 299.364 111.816 298.959 112.226C298.555 112.636 298.011 112.874 297.44 112.893C297.44 112.893 284.346 112.893 284.346 100.633V63.8147C284.346 63.1987 284.319 62.5612 284.264 61.9022C283.462 52.9125 277.03 46.094 267.699 46.094C257.676 46.094 250.934 53.9011 250.934 63.6484V111.452C250.934 112.038 250.705 112.601 250.297 113.016C249.889 113.432 249.335 113.667 248.756 113.669H237.822C237.249 113.648 236.704 113.408 236.299 112.997C235.893 112.585 235.656 112.033 235.635 111.452V34.4897C235.635 34.0363 235.813 33.6016 236.129 33.281C236.445 32.9605 236.874 32.7804 237.321 32.7804H240.574C242.184 32.7798 243.774 33.1397 245.231 33.8345C246.688 34.5292 247.976 35.5416 249.002 36.7994C254.479 32.9368 261.001 30.8874 267.672 30.9326C272.262 30.8963 276.805 31.8686 280.989 33.7824C285.173 35.6963 288.898 38.5065 291.909 42.0195C294.939 38.5008 298.683 35.6882 302.885 33.7745C307.088 31.8608 311.649 30.8913 316.255 30.9326C320.442 30.8675 324.601 31.6495 328.486 33.2328C332.372 34.8162 335.908 37.1691 338.886 40.1542C341.865 43.1392 344.227 46.6964 345.834 50.6177C347.441 54.5391 348.261 58.7459 348.246 62.9924Z" fill="#313E4E"/>
<path d="M30.9795 89.5364C-6.1959 65.7457 39.5444 44.819 58.1321 29.8701C103.335 -10.5696 131.891 54.0489 115.909 92.6962C100.984 131.501 54.3599 108.939 30.9795 89.5272" fill="#B0DEE6"/>
<path d="M79.3349 34.9794C49.9408 35.3582 50.0137 81.6 42.0592 102.37C25.2847 148.186 120.683 125.236 129.385 103.478C141.121 75.65 113.139 38.8968 79.3349 34.9794ZM65.1754 130.355C21.5216 135.723 43.9089 90.2201 48.9841 66.7343C58.7699 6.46742 121.23 38.2685 132.966 78.4587C145.622 118.058 95.4169 130.429 65.1754 130.355Z" fill="#368DB1"/>
</svg>
