<svg width="125" height="35" viewBox="0 0 125 35" fill="none" xmlns="http://www.w3.org/2000/svg">
<path d="M61.6882 3.30745C64.1975 3.62505 66.6721 4.08313 69.1319 4.60025C69.9817 4.77137 71.1294 5.18486 71.9414 5.4575C74.1347 6.2014 75.2894 6.95237 77.2986 7.9901C81.0502 9.8591 84.7976 11.7328 88.5409 13.6113C90.7408 14.7026 92.9358 15.7979 95.163 16.8566C97.3013 17.8753 99.5298 18.76 101.83 19.5034C104.228 20.2791 106.72 20.7921 109.221 21.2746C112.404 21.8875 115.616 22.3354 118.897 22.3517C120.744 22.3747 122.59 22.2574 124.411 22.0015C125.324 21.9346 124.924 21.1672 124.683 21.0853C124.441 21.0034 124.193 20.9354 123.94 20.8817C122.405 20.5673 120.912 20.1245 119.486 19.5604C117.635 18.8498 115.799 18.1149 113.97 17.3677C111.904 16.5248 109.823 15.7124 107.672 15.0243C106.445 14.6313 105.227 14.214 104.03 13.762C100.891 12.5614 97.8464 11.2015 94.9131 9.69011C92.7863 8.60132 90.5322 7.69076 88.1845 6.97212C87.165 6.66062 86.138 6.33691 85.1482 5.99283C84.0554 5.56627 83.4852 5.33137 82.7202 4.93821C81.0276 4.22564 79.283 3.58025 77.5062 3.00408C71.3022 0.992591 64.8854 -0.0844083 58.2039 0.00517232C56.8874 0.0234956 55.5758 0.147692 54.2593 0.227093C52.6784 0.322744 51.1074 0.507766 49.5575 0.780859C46.9096 1.24912 44.3458 1.94337 41.7697 2.61319C41.6741 2.63177 41.5823 2.66196 41.4975 2.70277C41.2896 2.82289 40.9679 2.88601 41.0026 3.15475C41.0372 3.42349 41.3317 3.48457 41.5916 3.509C41.9824 3.55437 42.3777 3.56936 42.772 3.55379C43.5935 3.50492 44.4126 3.42756 45.2318 3.35019L45.2318 3.35019C47.4911 3.13846 49.748 2.91044 52.0247 2.8575C55.2557 2.76786 58.49 2.91846 61.6882 3.30745Z" fill="#C4E6EC"/>
<path d="M7.86071e-05 27.5C7.86071e-05 25 2 24 3.15697 23.1183C4.30637 22.2423 5.41712 21.2944 6.57318 20.3907C11.4252 16.6322 16.7574 13.4487 22.7902 11.1155C25.2753 10.1608 27.84 9.3557 30.4643 8.70635C30.9371 8.58928 31.4149 8.47426 31.8754 8.33049C35.141 7.29952 38.5124 6.51586 41.9483 5.9891C45.0309 5.51029 48.1729 5.34819 51.3033 5.50644C53.3431 5.61735 55.378 5.75496 57.4029 6.00347C60.7224 6.42088 63.9933 7.07015 67.181 7.94437C70.4759 8.83574 73.6768 9.91607 76.8677 11.0252C78.3258 11.5325 79.7913 12.0233 81.2617 12.508C83.5813 13.2936 85.8172 14.2397 87.9456 15.3362C90.9905 16.8684 94.023 18.417 97.0803 19.9266C100.286 21.554 103.634 22.9806 107.096 24.1945C108.284 24.6052 109.48 24.9893 110.666 25.4021C111.332 25.6363 111.988 25.893 112.646 26.16C112.912 26.273 113.161 26.4108 113.389 26.5708C113.432 26.6088 113.464 26.6545 113.482 26.7044C113.5 26.7543 113.504 26.807 113.493 26.8583C113.466 26.9049 113.428 26.946 113.38 26.9787C113.332 27.0114 113.276 27.0348 113.216 27.0473C113.02 27.0655 112.823 27.0703 112.626 27.0617C107.492 27.1911 102.521 26.4188 97.6397 25.1824C95.8747 24.7346 94.1319 24.2314 92.3892 23.7447C90.6773 23.2455 89.0388 22.5875 87.505 21.7833C85.9652 20.9864 84.4551 20.1566 82.9426 19.3186C78.7008 17.0026 74.2374 14.979 69.5971 13.268C68.1785 12.7542 66.7048 12.3519 65.1956 12.0665C62.3791 11.4896 59.5145 11.0893 56.6256 10.8691C55.0834 10.7602 53.5288 10.7376 51.9816 10.7479C49.1124 10.7643 46.2483 10.9101 43.3866 11.1011C39.6119 11.3883 35.8679 11.9059 32.1849 12.6498C31.5147 12.7898 30.8536 12.9585 30.2044 13.155C22.648 15.3097 15.5423 18.4279 9.14276 22.3974C6.4197 24.0897 3.77585 25.8499 1.26073 27.7477C0.990894 27.953 0.71859 28.1584 0.441333 28.3433C-0.0167324 28.5471 0 28 7.86071e-05 27.5Z" fill="#D8EFF3"/>
<path d="M104.722 30.7253C104.684 30.9673 104.074 31.0022 103.707 30.9673C102.101 30.8217 100.489 30.7027 98.8904 30.5366C96.4011 30.3031 93.9357 29.9192 91.5139 29.388C89.3456 28.9127 87.2507 28.2313 85.2711 27.3574C82.5202 26.1186 79.7767 24.8695 77.0407 23.6102C71.7555 21.1976 66.1654 19.2751 60.3718 17.8775C57.3674 17.1456 54.2924 16.6302 51.1809 16.3371C50.2972 16.2551 49.4061 16.1853 48.5174 16.173C47.8593 16.1862 47.2024 16.228 46.5496 16.2981C43.8892 16.4811 41.2443 16.7941 38.6285 17.2355C32.1995 18.3564 26.0309 20.3296 20.3606 23.0789C17.4496 24.4757 14.5658 25.9053 11.7687 27.4538C10.1931 28.3023 8.68576 29.2348 7.25618 30.2453C6.83537 30.5489 6.37001 30.8114 5.91455 31.0801C5.68434 31.2134 5.22789 31.2537 5.17195 31.0801C5.06551 30.7499 5.31552 30.5099 5.50117 30.2597C6.19735 29.2979 7.04381 28.4165 8.01858 27.6384C9.42577 26.5228 10.9084 25.4744 12.4593 24.4983C14.6645 23.1097 16.9691 21.8329 19.3605 20.6751C23.8359 18.5194 28.4202 16.5402 33.3783 15.2193C37.0913 14.2307 40.8563 13.4431 44.7277 13.0718C47.6758 12.7908 50.6363 12.5673 53.6092 12.8257C57.5425 13.1682 61.4808 13.4718 65.3175 14.3291C67.8044 14.8703 70.2295 15.5902 72.5653 16.4807C73.3079 16.7699 74.0158 17.1227 74.7436 17.4406C75.7337 17.8754 76.7015 18.3492 77.714 18.7307C79.6928 19.479 81.6082 20.3376 83.4468 21.3007C84.9023 22.0514 86.3504 22.8103 87.8108 23.5568C89.5863 24.4479 91.4359 25.2334 93.3457 25.9073C94.8309 26.4406 96.2492 27.0744 97.6849 27.6836C98.6751 28.1081 99.6429 28.5901 100.655 29.0024C101.715 29.4413 102.806 29.8228 103.886 30.233C104.178 30.3438 104.722 30.5 104.722 30.7253Z" fill="#C4E6EC"/>
<path d="M96.2468 34.6059C96.2468 34.7617 95.6614 34.8098 95.3339 34.7854C92.3092 34.5533 89.3152 34.1029 86.3864 33.4395C81.077 32.2265 75.9094 30.6276 70.9447 28.6618C67.4449 27.2495 63.7583 26.1745 59.9582 25.4583C58.1502 25.1387 56.3227 24.8991 54.4835 24.7405C54.0568 24.6997 53.6351 24.6365 53.2134 24.5692C51.6913 24.3121 50.1378 24.2026 48.5846 24.2429C42.1351 24.4795 35.8716 25.499 29.8909 27.5321C27.3483 28.3967 25.0165 29.5896 22.784 30.9049C22.1117 31.3005 21.4469 31.7022 20.7722 32.0937C20.5584 32.2212 20.3309 32.3324 20.0925 32.4261C20.0007 32.4628 19.8196 32.5623 19.6733 32.3914C19.607 32.3155 19.7509 32.1645 19.8196 32.0611C20.3902 31.5003 20.9384 30.9191 21.5561 30.3971C22.9529 29.2011 24.4716 28.1054 26.0956 27.1222C31.0381 24.1453 36.6475 22.0005 42.6014 20.811C45.6579 20.2237 48.7701 19.8532 51.9037 19.7038C53.328 19.6135 54.1876 19.7038 56.1554 19.7996C61.9624 19.8175 67.6772 20.9953 72.8076 23.2315C74.6482 24.0227 76.4442 24.8914 78.2129 25.7886C80.4057 26.902 82.5514 28.0745 84.7071 29.2348C86.4264 30.1969 88.2618 31.0107 90.1842 31.6634C90.857 31.8892 91.5109 32.1514 92.1414 32.4485C93.3544 33.0011 94.5501 33.5802 95.7507 34.1492C95.9739 34.2572 96.2468 34.3388 96.2468 34.6059Z" fill="#D8EFF3"/>
</svg>
